<svg xmlns="http://www.w3.org/2000/svg" xmlns:xlink="http://www.w3.org/1999/xlink" width="1920" zoomAndPan="magnify" viewBox="0 0 1440 809.999993" height="1080" preserveAspectRatio="xMidYMid meet" version="1.0"><defs><g/><clipPath id="bd7df12d48"><path d="M 567.820312 396.976562 L 584.867188 396.976562 L 584.867188 413.023438 L 567.820312 413.023438 Z M 567.820312 396.976562 " clip-rule="nonzero"/></clipPath><clipPath id="e5f760b512"><path d="M 576.324219 396.976562 C 571.628906 396.976562 567.820312 400.570312 567.820312 405 C 567.820312 409.429688 571.628906 413.023438 576.324219 413.023438 C 581.019531 413.023438 584.828125 409.429688 584.828125 405 C 584.828125 400.570312 581.019531 396.976562 576.324219 396.976562 Z M 576.324219 396.976562 " clip-rule="nonzero"/></clipPath></defs><rect x="-144" width="1728" fill="#ffffff" y="-80.999999" height="971.999992" fill-opacity="1"/><rect x="-144" width="1728" fill="#e8e5df" y="-80.999999" height="971.999992" fill-opacity="1"/><g fill="#8b0000" fill-opacity="1"><g transform="translate(81.000002, 387.000001)"><g><path d="M 28.4375 -65.609375 C 31.925781 -65.609375 35.332031 -65.097656 38.65625 -64.078125 C 41.988281 -63.066406 44.460938 -62.066406 46.078125 -61.078125 L 48.421875 -59.515625 L 42.484375 -47.796875 C 42.015625 -48.109375 41.363281 -48.507812 40.53125 -49 C 39.695312 -49.5 38.132812 -50.164062 35.84375 -51 C 33.5625 -51.832031 31.429688 -52.25 29.453125 -52.25 C 27.003906 -52.25 25.113281 -51.726562 23.78125 -50.6875 C 22.457031 -49.644531 21.796875 -48.238281 21.796875 -46.46875 C 21.796875 -45.582031 22.109375 -44.757812 22.734375 -44 C 23.359375 -43.25 24.425781 -42.441406 25.9375 -41.578125 C 27.445312 -40.722656 28.773438 -40.035156 29.921875 -39.515625 C 31.066406 -39.003906 32.835938 -38.226562 35.234375 -37.1875 C 39.390625 -35.414062 42.9375 -33.003906 45.875 -29.953125 C 48.820312 -26.910156 50.296875 -23.460938 50.296875 -19.609375 C 50.296875 -15.910156 49.628906 -12.679688 48.296875 -9.921875 C 46.972656 -7.160156 45.148438 -5 42.828125 -3.4375 C 40.515625 -1.875 37.953125 -0.71875 35.140625 0.03125 C 32.335938 0.789062 29.296875 1.171875 26.015625 1.171875 C 23.203125 1.171875 20.441406 0.882812 17.734375 0.3125 C 15.023438 -0.257812 12.757812 -0.972656 10.9375 -1.828125 C 9.113281 -2.691406 7.472656 -3.539062 6.015625 -4.375 C 4.554688 -5.207031 3.488281 -5.910156 2.8125 -6.484375 L 1.796875 -7.34375 L 9.140625 -19.6875 C 9.765625 -19.164062 10.625 -18.5 11.71875 -17.6875 C 12.8125 -16.882812 14.75 -15.804688 17.53125 -14.453125 C 20.320312 -13.097656 22.785156 -12.421875 24.921875 -12.421875 C 31.117188 -12.421875 34.21875 -14.53125 34.21875 -18.75 C 34.21875 -19.632812 33.992188 -20.453125 33.546875 -21.203125 C 33.109375 -21.960938 32.328125 -22.71875 31.203125 -23.46875 C 30.085938 -24.226562 29.097656 -24.828125 28.234375 -25.265625 C 27.378906 -25.710938 25.972656 -26.390625 24.015625 -27.296875 C 22.066406 -28.210938 20.625 -28.90625 19.6875 -29.375 C 15.78125 -31.300781 12.757812 -33.707031 10.625 -36.59375 C 8.488281 -39.476562 7.421875 -42.585938 7.421875 -45.921875 C 7.421875 -51.703125 9.554688 -56.425781 13.828125 -60.09375 C 18.097656 -63.769531 22.96875 -65.609375 28.4375 -65.609375 Z M 28.4375 -65.609375 "/></g></g></g><g fill="#8b0000" fill-opacity="1"><g transform="translate(133.479011, 387.000001)"><g><path d="M 41.546875 -64.4375 L 41.546875 -51.546875 L 19.375 -51.546875 L 19.375 -38.75 L 40.609375 -38.75 L 40.609375 -25.859375 L 19.375 -25.859375 L 19.375 -12.890625 L 41.546875 -12.890625 L 41.546875 0 L 4.6875 0 L 4.6875 -64.4375 Z M 41.546875 -64.4375 "/></g></g></g><g fill="#8b0000" fill-opacity="1"><g transform="translate(178.773396, 387.000001)"><g><path d="M 0.625 -51.546875 L 0.625 -64.4375 L 45.921875 -64.4375 L 45.921875 -51.546875 L 30.625 -51.546875 L 30.625 0 L 15.9375 0 L 15.9375 -51.546875 Z M 0.625 -51.546875 "/></g></g></g><g fill="#8b0000" fill-opacity="1"><g transform="translate(225.317282, 387.000001)"><g><path d="M 37.421875 -64.4375 L 63.421875 0 L 47.640625 0 L 42.875 -12.890625 L 18.359375 -12.890625 L 13.59375 0 L -2.1875 0 L 23.828125 -64.4375 Z M 37.890625 -25.78125 L 30.703125 -44.515625 L 30.546875 -44.515625 L 23.359375 -25.78125 Z M 37.890625 -25.78125 "/></g></g></g><g fill="#8b0000" fill-opacity="1"><g transform="translate(286.542792, 387.000001)"><g><path d="M 19.375 -39.984375 L 19.375 0 L 4.6875 0 L 4.6875 -64.4375 L 19.375 -64.4375 L 44.984375 -24.453125 L 45.140625 -24.453125 L 45.140625 -64.4375 L 59.828125 -64.4375 L 59.828125 0 L 45.140625 0 L 19.53125 -39.984375 Z M 19.375 -39.984375 "/></g></g></g><g fill="#8b0000" fill-opacity="1"><g transform="translate(351.048236, 387.000001)"><g><path d="M 62.953125 -36.09375 L 62.953125 -22.109375 C 61.285156 -14.453125 57.640625 -8.65625 52.015625 -4.71875 C 46.390625 -0.789062 40.117188 1.171875 33.203125 1.171875 C 24.503906 1.171875 17.09375 -2.082031 10.96875 -8.59375 C 4.851562 -15.101562 1.796875 -22.96875 1.796875 -32.1875 C 1.796875 -41.550781 4.789062 -49.460938 10.78125 -55.921875 C 16.769531 -62.378906 24.242188 -65.609375 33.203125 -65.609375 C 43.660156 -65.609375 51.9375 -61.9375 58.03125 -54.59375 L 48.421875 -44.046875 C 44.984375 -49.566406 40.195312 -52.328125 34.0625 -52.328125 C 29.53125 -52.328125 25.660156 -50.359375 22.453125 -46.421875 C 19.253906 -42.492188 17.65625 -37.75 17.65625 -32.1875 C 17.65625 -26.71875 19.253906 -22.039062 22.453125 -18.15625 C 25.660156 -14.28125 29.53125 -12.34375 34.0625 -12.34375 C 37.800781 -12.34375 41.0625 -13.472656 43.84375 -15.734375 C 46.632812 -18.003906 48.03125 -21.015625 48.03125 -24.765625 L 33.203125 -24.765625 L 33.203125 -36.09375 Z M 62.953125 -36.09375 "/></g></g></g><g fill="#8b0000" fill-opacity="1"><g transform="translate(415.787964, 387.000001)"><g><path d="M 63.34375 0 L 43.109375 0 L 19.375 -27.34375 L 19.375 0 L 4.6875 0 L 4.6875 -64.4375 L 19.375 -64.4375 L 19.375 -38.125 L 41.46875 -64.4375 L 59.28125 -64.4375 L 33.359375 -33.90625 Z M 63.34375 0 "/></g></g></g><g fill="#8b0000" fill-opacity="1"><g transform="translate(477.247769, 387.000001)"><g><path d="M 54.203125 -64.4375 L 54.203125 -22.890625 C 54.203125 -14.972656 52.066406 -8.984375 47.796875 -4.921875 C 43.523438 -0.859375 37.273438 1.171875 29.046875 1.171875 C 20.828125 1.171875 14.582031 -0.859375 10.3125 -4.921875 C 6.039062 -8.984375 3.90625 -14.972656 3.90625 -22.890625 L 3.90625 -64.4375 L 18.59375 -64.4375 L 18.59375 -27.1875 C 18.59375 -21.976562 19.410156 -18.359375 21.046875 -16.328125 C 22.691406 -14.296875 25.363281 -13.28125 29.0625 -13.28125 C 32.757812 -13.28125 35.425781 -14.296875 37.0625 -16.328125 C 38.695312 -18.359375 39.515625 -21.976562 39.515625 -27.1875 L 39.515625 -64.4375 Z M 54.203125 -64.4375 "/></g></g></g><g fill="#8b0000" fill-opacity="1"><g transform="translate(535.349557, 387.000001)"><g><path d="M 4.6875 -64.4375 L 28.203125 -64.4375 C 34.765625 -64.4375 40.070312 -62.742188 44.125 -59.359375 C 48.1875 -55.972656 50.21875 -51.050781 50.21875 -44.59375 C 50.21875 -38.144531 48.160156 -33.082031 44.046875 -29.40625 C 39.941406 -25.738281 34.660156 -23.90625 28.203125 -23.90625 L 19.375 -23.90625 L 19.375 0 L 4.6875 0 Z M 19.375 -35.625 L 23.515625 -35.625 C 26.796875 -35.625 29.488281 -36.285156 31.59375 -37.609375 C 33.707031 -38.929688 34.765625 -41.101562 34.765625 -44.125 C 34.765625 -47.195312 33.707031 -49.394531 31.59375 -50.71875 C 29.488281 -52.050781 26.796875 -52.71875 23.515625 -52.71875 L 19.375 -52.71875 Z M 19.375 -35.625 "/></g></g></g><g fill="#8b0000" fill-opacity="1"><g transform="translate(81.000002, 464.999997)"><g><path d="M 4.6875 -64.4375 L 28.203125 -64.4375 C 34.765625 -64.4375 40.070312 -62.742188 44.125 -59.359375 C 48.1875 -55.972656 50.21875 -51.050781 50.21875 -44.59375 C 50.21875 -38.144531 48.160156 -33.082031 44.046875 -29.40625 C 39.941406 -25.738281 34.660156 -23.90625 28.203125 -23.90625 L 19.375 -23.90625 L 19.375 0 L 4.6875 0 Z M 19.375 -35.625 L 23.515625 -35.625 C 26.796875 -35.625 29.488281 -36.285156 31.59375 -37.609375 C 33.707031 -38.929688 34.765625 -41.101562 34.765625 -44.125 C 34.765625 -47.195312 33.707031 -49.394531 31.59375 -50.71875 C 29.488281 -52.050781 26.796875 -52.71875 23.515625 -52.71875 L 19.375 -52.71875 Z M 19.375 -35.625 "/></g></g></g><g fill="#8b0000" fill-opacity="1"><g transform="translate(133.010445, 464.999997)"><g><path d="M 37.421875 -64.4375 L 63.421875 0 L 47.640625 0 L 42.875 -12.890625 L 18.359375 -12.890625 L 13.59375 0 L -2.1875 0 L 23.828125 -64.4375 Z M 37.890625 -25.78125 L 30.703125 -44.515625 L 30.546875 -44.515625 L 23.359375 -25.78125 Z M 37.890625 -25.78125 "/></g></g></g><g fill="#8b0000" fill-opacity="1"><g transform="translate(194.235955, 464.999997)"><g><path d="M 62.953125 -36.09375 L 62.953125 -22.109375 C 61.285156 -14.453125 57.640625 -8.65625 52.015625 -4.71875 C 46.390625 -0.789062 40.117188 1.171875 33.203125 1.171875 C 24.503906 1.171875 17.09375 -2.082031 10.96875 -8.59375 C 4.851562 -15.101562 1.796875 -22.96875 1.796875 -32.1875 C 1.796875 -41.550781 4.789062 -49.460938 10.78125 -55.921875 C 16.769531 -62.378906 24.242188 -65.609375 33.203125 -65.609375 C 43.660156 -65.609375 51.9375 -61.9375 58.03125 -54.59375 L 48.421875 -44.046875 C 44.984375 -49.566406 40.195312 -52.328125 34.0625 -52.328125 C 29.53125 -52.328125 25.660156 -50.359375 22.453125 -46.421875 C 19.253906 -42.492188 17.65625 -37.75 17.65625 -32.1875 C 17.65625 -26.71875 19.253906 -22.039062 22.453125 -18.15625 C 25.660156 -14.28125 29.53125 -12.34375 34.0625 -12.34375 C 37.800781 -12.34375 41.0625 -13.472656 43.84375 -15.734375 C 46.632812 -18.003906 48.03125 -21.015625 48.03125 -24.765625 L 33.203125 -24.765625 L 33.203125 -36.09375 Z M 62.953125 -36.09375 "/></g></g></g><g fill="#8b0000" fill-opacity="1"><g transform="translate(258.975682, 464.999997)"><g><path d="M 19.375 -64.4375 L 19.375 0 L 4.6875 0 L 4.6875 -64.4375 Z M 19.375 -64.4375 "/></g></g></g><path stroke-linecap="butt" transform="matrix(0.75, 0, 0, 0.75, 350.780936, 399.75)" fill="none" stroke-linejoin="miter" d="M 0.000418967 7.000001 L 281.1046 7.000001 " stroke="#8b0000" stroke-width="14" stroke-opacity="1" stroke-miterlimit="4"/><g clip-path="url(#bd7df12d48)"><g clip-path="url(#e5f760b512)"><path fill="#361509" d="M 567.820312 396.976562 L 584.804688 396.976562 L 584.804688 413.023438 L 567.820312 413.023438 Z M 567.820312 396.976562 " fill-opacity="1" fill-rule="nonzero"/></g></g><g fill="#8b0000" fill-opacity="1"><g transform="translate(1173.348339, 374.250001)"><g><path d="M 2.265625 -16.890625 L 9.65625 -16.890625 C 11.457031 -16.890625 13.054688 -16.535156 14.453125 -15.828125 C 15.847656 -15.128906 16.929688 -14.140625 17.703125 -12.859375 C 18.472656 -11.585938 18.859375 -10.113281 18.859375 -8.4375 C 18.859375 -6.769531 18.472656 -5.296875 17.703125 -4.015625 C 16.929688 -2.734375 15.847656 -1.742188 14.453125 -1.046875 C 13.054688 -0.347656 11.457031 0 9.65625 0 L 2.265625 0 Z M 9.5 -2.65625 C 10.738281 -2.65625 11.828125 -2.890625 12.765625 -3.359375 C 13.710938 -3.835938 14.4375 -4.515625 14.9375 -5.390625 C 15.445312 -6.265625 15.703125 -7.28125 15.703125 -8.4375 C 15.703125 -9.601562 15.445312 -10.625 14.9375 -11.5 C 14.4375 -12.375 13.710938 -13.046875 12.765625 -13.515625 C 11.828125 -13.992188 10.738281 -14.234375 9.5 -14.234375 L 5.40625 -14.234375 L 5.40625 -2.65625 Z M 9.5 -2.65625 "/></g></g></g><g fill="#8b0000" fill-opacity="1"><g transform="translate(1193.510354, 374.250001)"><g><path d="M 6.90625 -13.03125 C 8.800781 -13.03125 10.25 -12.570312 11.25 -11.65625 C 12.257812 -10.75 12.765625 -9.378906 12.765625 -7.546875 L 12.765625 0 L 9.921875 0 L 9.921875 -1.5625 C 9.546875 -1 9.015625 -0.566406 8.328125 -0.265625 C 7.648438 0.0234375 6.828125 0.171875 5.859375 0.171875 C 4.898438 0.171875 4.054688 0.0078125 3.328125 -0.3125 C 2.609375 -0.644531 2.050781 -1.101562 1.65625 -1.6875 C 1.257812 -2.28125 1.0625 -2.945312 1.0625 -3.6875 C 1.0625 -4.84375 1.488281 -5.769531 2.34375 -6.46875 C 3.207031 -7.175781 4.566406 -7.53125 6.421875 -7.53125 L 9.75 -7.53125 L 9.75 -7.71875 C 9.75 -8.625 9.476562 -9.316406 8.9375 -9.796875 C 8.394531 -10.273438 7.59375 -10.515625 6.53125 -10.515625 C 5.8125 -10.515625 5.101562 -10.398438 4.40625 -10.171875 C 3.707031 -9.953125 3.113281 -9.640625 2.625 -9.234375 L 1.453125 -11.4375 C 2.117188 -11.945312 2.925781 -12.335938 3.875 -12.609375 C 4.832031 -12.890625 5.84375 -13.03125 6.90625 -13.03125 Z M 6.484375 -2.03125 C 7.242188 -2.03125 7.914062 -2.203125 8.5 -2.546875 C 9.09375 -2.890625 9.507812 -3.382812 9.75 -4.03125 L 9.75 -5.53125 L 6.640625 -5.53125 C 4.898438 -5.53125 4.03125 -4.957031 4.03125 -3.8125 C 4.03125 -3.257812 4.242188 -2.820312 4.671875 -2.5 C 5.109375 -2.1875 5.710938 -2.03125 6.484375 -2.03125 Z M 6.484375 -2.03125 "/></g></g></g><g fill="#8b0000" fill-opacity="1"><g transform="translate(1208.390702, 374.250001)"><g><path d="M 9.125 -13.03125 C 10.375 -13.03125 11.492188 -12.753906 12.484375 -12.203125 C 13.472656 -11.660156 14.25 -10.890625 14.8125 -9.890625 C 15.375 -8.890625 15.65625 -7.738281 15.65625 -6.4375 C 15.65625 -5.132812 15.375 -3.976562 14.8125 -2.96875 C 14.25 -1.96875 13.472656 -1.191406 12.484375 -0.640625 C 11.492188 -0.0976562 10.375 0.171875 9.125 0.171875 C 7.382812 0.171875 6.007812 -0.40625 5 -1.5625 L 5 4.6875 L 1.984375 4.6875 L 1.984375 -12.875 L 4.84375 -12.875 L 4.84375 -11.1875 C 5.34375 -11.800781 5.957031 -12.257812 6.6875 -12.5625 C 7.425781 -12.875 8.238281 -13.03125 9.125 -13.03125 Z M 8.78125 -2.40625 C 9.894531 -2.40625 10.804688 -2.773438 11.515625 -3.515625 C 12.234375 -4.253906 12.59375 -5.226562 12.59375 -6.4375 C 12.59375 -7.644531 12.234375 -8.617188 11.515625 -9.359375 C 10.804688 -10.097656 9.894531 -10.46875 8.78125 -10.46875 C 8.0625 -10.46875 7.410156 -10.300781 6.828125 -9.96875 C 6.242188 -9.644531 5.785156 -9.175781 5.453125 -8.5625 C 5.117188 -7.945312 4.953125 -7.238281 4.953125 -6.4375 C 4.953125 -5.632812 5.117188 -4.925781 5.453125 -4.3125 C 5.785156 -3.707031 6.242188 -3.238281 6.828125 -2.90625 C 7.410156 -2.570312 8.0625 -2.40625 8.78125 -2.40625 Z M 8.78125 -2.40625 "/></g></g></g><g fill="#8b0000" fill-opacity="1"><g transform="translate(1225.176306, 374.250001)"><g><path d="M 6.90625 -13.03125 C 8.800781 -13.03125 10.25 -12.570312 11.25 -11.65625 C 12.257812 -10.75 12.765625 -9.378906 12.765625 -7.546875 L 12.765625 0 L 9.921875 0 L 9.921875 -1.5625 C 9.546875 -1 9.015625 -0.566406 8.328125 -0.265625 C 7.648438 0.0234375 6.828125 0.171875 5.859375 0.171875 C 4.898438 0.171875 4.054688 0.0078125 3.328125 -0.3125 C 2.609375 -0.644531 2.050781 -1.101562 1.65625 -1.6875 C 1.257812 -2.28125 1.0625 -2.945312 1.0625 -3.6875 C 1.0625 -4.84375 1.488281 -5.769531 2.34375 -6.46875 C 3.207031 -7.175781 4.566406 -7.53125 6.421875 -7.53125 L 9.75 -7.53125 L 9.75 -7.71875 C 9.75 -8.625 9.476562 -9.316406 8.9375 -9.796875 C 8.394531 -10.273438 7.59375 -10.515625 6.53125 -10.515625 C 5.8125 -10.515625 5.101562 -10.398438 4.40625 -10.171875 C 3.707031 -9.953125 3.113281 -9.640625 2.625 -9.234375 L 1.453125 -11.4375 C 2.117188 -11.945312 2.925781 -12.335938 3.875 -12.609375 C 4.832031 -12.890625 5.84375 -13.03125 6.90625 -13.03125 Z M 6.484375 -2.03125 C 7.242188 -2.03125 7.914062 -2.203125 8.5 -2.546875 C 9.09375 -2.890625 9.507812 -3.382812 9.75 -4.03125 L 9.75 -5.53125 L 6.640625 -5.53125 C 4.898438 -5.53125 4.03125 -4.957031 4.03125 -3.8125 C 4.03125 -3.257812 4.242188 -2.820312 4.671875 -2.5 C 5.109375 -2.1875 5.710938 -2.03125 6.484375 -2.03125 Z M 6.484375 -2.03125 "/></g></g></g><g fill="#8b0000" fill-opacity="1"><g transform="translate(1240.056657, 374.250001)"><g><path d="M 9.71875 -0.703125 C 9.363281 -0.410156 8.929688 -0.191406 8.421875 -0.046875 C 7.921875 0.0976562 7.390625 0.171875 6.828125 0.171875 C 5.410156 0.171875 4.316406 -0.195312 3.546875 -0.9375 C 2.773438 -1.675781 2.390625 -2.753906 2.390625 -4.171875 L 2.390625 -10.375 L 0.265625 -10.375 L 0.265625 -12.78125 L 2.390625 -12.78125 L 2.390625 -15.734375 L 5.40625 -15.734375 L 5.40625 -12.78125 L 8.859375 -12.78125 L 8.859375 -10.375 L 5.40625 -10.375 L 5.40625 -4.25 C 5.40625 -3.625 5.554688 -3.144531 5.859375 -2.8125 C 6.171875 -2.476562 6.613281 -2.3125 7.1875 -2.3125 C 7.863281 -2.3125 8.425781 -2.488281 8.875 -2.84375 Z M 9.71875 -0.703125 "/></g></g></g><g fill="#8b0000" fill-opacity="1"><g transform="translate(1250.523572, 374.250001)"><g><path d="M 7.234375 -5.53125 L 5 -3.40625 L 5 0 L 1.984375 0 L 1.984375 -17.90625 L 5 -17.90625 L 5 -7.09375 L 11.25 -12.875 L 14.859375 -12.875 L 9.484375 -7.484375 L 15.375 0 L 11.703125 0 Z M 7.234375 -5.53125 "/></g></g></g><g fill="#8b0000" fill-opacity="1"><g transform="translate(1266.103317, 374.250001)"><g><path d="M 6.90625 -13.03125 C 8.800781 -13.03125 10.25 -12.570312 11.25 -11.65625 C 12.257812 -10.75 12.765625 -9.378906 12.765625 -7.546875 L 12.765625 0 L 9.921875 0 L 9.921875 -1.5625 C 9.546875 -1 9.015625 -0.566406 8.328125 -0.265625 C 7.648438 0.0234375 6.828125 0.171875 5.859375 0.171875 C 4.898438 0.171875 4.054688 0.0078125 3.328125 -0.3125 C 2.609375 -0.644531 2.050781 -1.101562 1.65625 -1.6875 C 1.257812 -2.28125 1.0625 -2.945312 1.0625 -3.6875 C 1.0625 -4.84375 1.488281 -5.769531 2.34375 -6.46875 C 3.207031 -7.175781 4.566406 -7.53125 6.421875 -7.53125 L 9.75 -7.53125 L 9.75 -7.71875 C 9.75 -8.625 9.476562 -9.316406 8.9375 -9.796875 C 8.394531 -10.273438 7.59375 -10.515625 6.53125 -10.515625 C 5.8125 -10.515625 5.101562 -10.398438 4.40625 -10.171875 C 3.707031 -9.953125 3.113281 -9.640625 2.625 -9.234375 L 1.453125 -11.4375 C 2.117188 -11.945312 2.925781 -12.335938 3.875 -12.609375 C 4.832031 -12.890625 5.84375 -13.03125 6.90625 -13.03125 Z M 6.484375 -2.03125 C 7.242188 -2.03125 7.914062 -2.203125 8.5 -2.546875 C 9.09375 -2.890625 9.507812 -3.382812 9.75 -4.03125 L 9.75 -5.53125 L 6.640625 -5.53125 C 4.898438 -5.53125 4.03125 -4.957031 4.03125 -3.8125 C 4.03125 -3.257812 4.242188 -2.820312 4.671875 -2.5 C 5.109375 -2.1875 5.710938 -2.03125 6.484375 -2.03125 Z M 6.484375 -2.03125 "/></g></g></g><g fill="#8b0000" fill-opacity="1"><g transform="translate(1280.983668, 374.250001)"><g><path d="M 9.28125 -13.03125 C 10.90625 -13.03125 12.207031 -12.554688 13.1875 -11.609375 C 14.175781 -10.660156 14.671875 -9.25 14.671875 -7.375 L 14.671875 0 L 11.65625 0 L 11.65625 -7 C 11.65625 -8.125 11.390625 -8.96875 10.859375 -9.53125 C 10.328125 -10.101562 9.570312 -10.390625 8.59375 -10.390625 C 7.476562 -10.390625 6.597656 -10.054688 5.953125 -9.390625 C 5.316406 -8.722656 5 -7.765625 5 -6.515625 L 5 0 L 1.984375 0 L 1.984375 -12.875 L 4.84375 -12.875 L 4.84375 -11.21875 C 5.34375 -11.8125 5.96875 -12.257812 6.71875 -12.5625 C 7.476562 -12.875 8.332031 -13.03125 9.28125 -13.03125 Z M 9.28125 -13.03125 "/></g></g></g><g fill="#8b0000" fill-opacity="1"><g transform="translate(1297.745165, 374.250001)"><g/></g></g><g fill="#8b0000" fill-opacity="1"><g transform="translate(1304.642736, 374.250001)"><g><path d="M 13.3125 0 L 9.859375 -4.953125 C 9.722656 -4.929688 9.507812 -4.921875 9.21875 -4.921875 L 5.40625 -4.921875 L 5.40625 0 L 2.265625 0 L 2.265625 -16.890625 L 9.21875 -16.890625 C 10.675781 -16.890625 11.945312 -16.644531 13.03125 -16.15625 C 14.125 -15.675781 14.957031 -14.984375 15.53125 -14.078125 C 16.113281 -13.179688 16.40625 -12.113281 16.40625 -10.875 C 16.40625 -9.601562 16.09375 -8.507812 15.46875 -7.59375 C 14.851562 -6.675781 13.96875 -5.992188 12.8125 -5.546875 L 16.6875 0 Z M 13.25 -10.875 C 13.25 -11.957031 12.894531 -12.785156 12.1875 -13.359375 C 11.476562 -13.941406 10.441406 -14.234375 9.078125 -14.234375 L 5.40625 -14.234375 L 5.40625 -7.5 L 9.078125 -7.5 C 10.441406 -7.5 11.476562 -7.789062 12.1875 -8.375 C 12.894531 -8.96875 13.25 -9.800781 13.25 -10.875 Z M 13.25 -10.875 "/></g></g></g><g fill="#8b0000" fill-opacity="1"><g transform="translate(1322.513622, 374.250001)"><g><path d="M 1.984375 -12.875 L 5 -12.875 L 5 0 L 1.984375 0 Z M 3.5 -15 C 2.945312 -15 2.484375 -15.171875 2.109375 -15.515625 C 1.742188 -15.867188 1.5625 -16.300781 1.5625 -16.8125 C 1.5625 -17.332031 1.742188 -17.765625 2.109375 -18.109375 C 2.484375 -18.453125 2.945312 -18.625 3.5 -18.625 C 4.039062 -18.625 4.492188 -18.457031 4.859375 -18.125 C 5.234375 -17.800781 5.421875 -17.390625 5.421875 -16.890625 C 5.421875 -16.359375 5.238281 -15.910156 4.875 -15.546875 C 4.519531 -15.179688 4.0625 -15 3.5 -15 Z M 3.5 -15 "/></g></g></g><g fill="#8b0000" fill-opacity="1"><g transform="translate(1329.724716, 374.250001)"><g><path d="M 7.890625 0.171875 C 6.554688 0.171875 5.359375 -0.109375 4.296875 -0.671875 C 3.234375 -1.234375 2.40625 -2.015625 1.8125 -3.015625 C 1.21875 -4.023438 0.921875 -5.164062 0.921875 -6.4375 C 0.921875 -7.707031 1.21875 -8.84375 1.8125 -9.84375 C 2.40625 -10.84375 3.226562 -11.625 4.28125 -12.1875 C 5.332031 -12.75 6.535156 -13.03125 7.890625 -13.03125 C 9.160156 -13.03125 10.273438 -12.769531 11.234375 -12.25 C 12.191406 -11.738281 12.910156 -11 13.390625 -10.03125 L 11.078125 -8.6875 C 10.703125 -9.28125 10.238281 -9.722656 9.6875 -10.015625 C 9.132812 -10.316406 8.523438 -10.46875 7.859375 -10.46875 C 6.734375 -10.46875 5.800781 -10.101562 5.0625 -9.375 C 4.320312 -8.644531 3.953125 -7.664062 3.953125 -6.4375 C 3.953125 -5.21875 4.316406 -4.238281 5.046875 -3.5 C 5.785156 -2.769531 6.722656 -2.40625 7.859375 -2.40625 C 8.523438 -2.40625 9.132812 -2.554688 9.6875 -2.859375 C 10.238281 -3.160156 10.703125 -3.609375 11.078125 -4.203125 L 13.390625 -2.84375 C 12.890625 -1.882812 12.160156 -1.140625 11.203125 -0.609375 C 10.242188 -0.0859375 9.140625 0.171875 7.890625 0.171875 Z M 7.890625 0.171875 "/></g></g></g><g fill="#8b0000" fill-opacity="1"><g transform="translate(1343.978023, 374.250001)"><g><path d="M 14.09375 -6.375 C 14.09375 -6.164062 14.078125 -5.863281 14.046875 -5.46875 L 3.9375 -5.46875 C 4.113281 -4.519531 4.570312 -3.769531 5.3125 -3.21875 C 6.0625 -2.664062 6.992188 -2.390625 8.109375 -2.390625 C 9.523438 -2.390625 10.691406 -2.851562 11.609375 -3.78125 L 13.21875 -1.9375 C 12.644531 -1.238281 11.914062 -0.710938 11.03125 -0.359375 C 10.144531 -0.00390625 9.144531 0.171875 8.03125 0.171875 C 6.613281 0.171875 5.363281 -0.109375 4.28125 -0.671875 C 3.207031 -1.234375 2.378906 -2.015625 1.796875 -3.015625 C 1.210938 -4.023438 0.921875 -5.164062 0.921875 -6.4375 C 0.921875 -7.695312 1.203125 -8.828125 1.765625 -9.828125 C 2.335938 -10.835938 3.128906 -11.625 4.140625 -12.1875 C 5.160156 -12.75 6.304688 -13.03125 7.578125 -13.03125 C 8.828125 -13.03125 9.945312 -12.75 10.9375 -12.1875 C 11.925781 -11.632812 12.695312 -10.851562 13.25 -9.84375 C 13.8125 -8.84375 14.09375 -7.6875 14.09375 -6.375 Z M 7.578125 -10.609375 C 6.609375 -10.609375 5.789062 -10.320312 5.125 -9.75 C 4.457031 -9.1875 4.050781 -8.429688 3.90625 -7.484375 L 11.21875 -7.484375 C 11.09375 -8.410156 10.695312 -9.160156 10.03125 -9.734375 C 9.375 -10.316406 8.554688 -10.609375 7.578125 -10.609375 Z M 7.578125 -10.609375 "/></g></g></g><g fill="#8b0000" fill-opacity="1"><g transform="translate(1199.399119, 399.75)"><g><path d="M 14.234375 -8.78125 C 15.171875 -8.476562 15.910156 -7.96875 16.453125 -7.25 C 17.003906 -6.53125 17.28125 -5.640625 17.28125 -4.578125 C 17.28125 -3.117188 16.710938 -1.988281 15.578125 -1.1875 C 14.453125 -0.394531 12.8125 0 10.65625 0 L 2.265625 0 L 2.265625 -16.890625 L 10.1875 -16.890625 C 12.175781 -16.890625 13.707031 -16.5 14.78125 -15.71875 C 15.863281 -14.9375 16.40625 -13.863281 16.40625 -12.5 C 16.40625 -11.664062 16.210938 -10.925781 15.828125 -10.28125 C 15.441406 -9.632812 14.910156 -9.132812 14.234375 -8.78125 Z M 5.40625 -14.421875 L 5.40625 -9.765625 L 9.84375 -9.765625 C 10.9375 -9.765625 11.773438 -9.960938 12.359375 -10.359375 C 12.953125 -10.753906 13.25 -11.332031 13.25 -12.09375 C 13.25 -12.863281 12.953125 -13.441406 12.359375 -13.828125 C 11.773438 -14.222656 10.9375 -14.421875 9.84375 -14.421875 Z M 10.46875 -2.453125 C 12.894531 -2.453125 14.109375 -3.265625 14.109375 -4.890625 C 14.109375 -6.515625 12.894531 -7.328125 10.46875 -7.328125 L 5.40625 -7.328125 L 5.40625 -2.453125 Z M 10.46875 -2.453125 "/></g></g></g><g fill="#8b0000" fill-opacity="1"><g transform="translate(1217.99351, 399.75)"><g><path d="M 7.765625 0.171875 C 6.460938 0.171875 5.285156 -0.109375 4.234375 -0.671875 C 3.191406 -1.234375 2.378906 -2.015625 1.796875 -3.015625 C 1.210938 -4.023438 0.921875 -5.164062 0.921875 -6.4375 C 0.921875 -7.707031 1.210938 -8.84375 1.796875 -9.84375 C 2.378906 -10.84375 3.191406 -11.625 4.234375 -12.1875 C 5.285156 -12.75 6.460938 -13.03125 7.765625 -13.03125 C 9.085938 -13.03125 10.269531 -12.75 11.3125 -12.1875 C 12.351562 -11.625 13.164062 -10.84375 13.75 -9.84375 C 14.34375 -8.84375 14.640625 -7.707031 14.640625 -6.4375 C 14.640625 -5.164062 14.34375 -4.023438 13.75 -3.015625 C 13.164062 -2.015625 12.351562 -1.234375 11.3125 -0.671875 C 10.269531 -0.109375 9.085938 0.171875 7.765625 0.171875 Z M 7.765625 -2.40625 C 8.878906 -2.40625 9.796875 -2.773438 10.515625 -3.515625 C 11.242188 -4.253906 11.609375 -5.226562 11.609375 -6.4375 C 11.609375 -7.644531 11.242188 -8.617188 10.515625 -9.359375 C 9.796875 -10.097656 8.878906 -10.46875 7.765625 -10.46875 C 6.660156 -10.46875 5.75 -10.097656 5.03125 -9.359375 C 4.3125 -8.617188 3.953125 -7.644531 3.953125 -6.4375 C 3.953125 -5.226562 4.3125 -4.253906 5.03125 -3.515625 C 5.75 -2.773438 6.660156 -2.40625 7.765625 -2.40625 Z M 7.765625 -2.40625 "/></g></g></g><g fill="#8b0000" fill-opacity="1"><g transform="translate(1233.790313, 399.75)"><g><path d="M 22.078125 -12.875 L 17.328125 0 L 14.421875 0 L 11.09375 -8.875 L 7.71875 0 L 4.828125 0 L 0.09375 -12.875 L 2.9375 -12.875 L 6.34375 -3.375 L 9.890625 -12.875 L 12.421875 -12.875 L 15.90625 -3.328125 L 19.390625 -12.875 Z M 22.078125 -12.875 "/></g></g></g><g fill="#8b0000" fill-opacity="1"><g transform="translate(1256.195217, 399.75)"><g><path d="M 1.984375 -17.90625 L 5 -17.90625 L 5 0 L 1.984375 0 Z M 1.984375 -17.90625 "/></g></g></g><g fill="#8b0000" fill-opacity="1"><g transform="translate(1263.406311, 399.75)"><g/></g></g><g fill="#8b0000" fill-opacity="1"><g transform="translate(1270.303882, 399.75)"><g><path d="M 9.21875 -16.890625 C 10.675781 -16.890625 11.945312 -16.644531 13.03125 -16.15625 C 14.125 -15.675781 14.957031 -14.984375 15.53125 -14.078125 C 16.113281 -13.179688 16.40625 -12.113281 16.40625 -10.875 C 16.40625 -9.65625 16.113281 -8.59375 15.53125 -7.6875 C 14.957031 -6.78125 14.125 -6.082031 13.03125 -5.59375 C 11.945312 -5.113281 10.675781 -4.875 9.21875 -4.875 L 5.40625 -4.875 L 5.40625 0 L 2.265625 0 L 2.265625 -16.890625 Z M 9.078125 -7.53125 C 10.441406 -7.53125 11.476562 -7.816406 12.1875 -8.390625 C 12.894531 -8.972656 13.25 -9.800781 13.25 -10.875 C 13.25 -11.957031 12.894531 -12.785156 12.1875 -13.359375 C 11.476562 -13.941406 10.441406 -14.234375 9.078125 -14.234375 L 5.40625 -14.234375 L 5.40625 -7.53125 Z M 9.078125 -7.53125 "/></g></g></g><g fill="#8b0000" fill-opacity="1"><g transform="translate(1288.054182, 399.75)"><g><path d="M 4.84375 -11 C 5.71875 -12.351562 7.25 -13.03125 9.4375 -13.03125 L 9.4375 -10.15625 C 9.175781 -10.207031 8.941406 -10.234375 8.734375 -10.234375 C 7.554688 -10.234375 6.640625 -9.890625 5.984375 -9.203125 C 5.328125 -8.515625 5 -7.53125 5 -6.25 L 5 0 L 1.984375 0 L 1.984375 -12.875 L 4.84375 -12.875 Z M 4.84375 -11 "/></g></g></g><g fill="#8b0000" fill-opacity="1"><g transform="translate(1298.424623, 399.75)"><g><path d="M 6.90625 -13.03125 C 8.800781 -13.03125 10.25 -12.570312 11.25 -11.65625 C 12.257812 -10.75 12.765625 -9.378906 12.765625 -7.546875 L 12.765625 0 L 9.921875 0 L 9.921875 -1.5625 C 9.546875 -1 9.015625 -0.566406 8.328125 -0.265625 C 7.648438 0.0234375 6.828125 0.171875 5.859375 0.171875 C 4.898438 0.171875 4.054688 0.0078125 3.328125 -0.3125 C 2.609375 -0.644531 2.050781 -1.101562 1.65625 -1.6875 C 1.257812 -2.28125 1.0625 -2.945312 1.0625 -3.6875 C 1.0625 -4.84375 1.488281 -5.769531 2.34375 -6.46875 C 3.207031 -7.175781 4.566406 -7.53125 6.421875 -7.53125 L 9.75 -7.53125 L 9.75 -7.71875 C 9.75 -8.625 9.476562 -9.316406 8.9375 -9.796875 C 8.394531 -10.273438 7.59375 -10.515625 6.53125 -10.515625 C 5.8125 -10.515625 5.101562 -10.398438 4.40625 -10.171875 C 3.707031 -9.953125 3.113281 -9.640625 2.625 -9.234375 L 1.453125 -11.4375 C 2.117188 -11.945312 2.925781 -12.335938 3.875 -12.609375 C 4.832031 -12.890625 5.84375 -13.03125 6.90625 -13.03125 Z M 6.484375 -2.03125 C 7.242188 -2.03125 7.914062 -2.203125 8.5 -2.546875 C 9.09375 -2.890625 9.507812 -3.382812 9.75 -4.03125 L 9.75 -5.53125 L 6.640625 -5.53125 C 4.898438 -5.53125 4.03125 -4.957031 4.03125 -3.8125 C 4.03125 -3.257812 4.242188 -2.820312 4.671875 -2.5 C 5.109375 -2.1875 5.710938 -2.03125 6.484375 -2.03125 Z M 6.484375 -2.03125 "/></g></g></g><g fill="#8b0000" fill-opacity="1"><g transform="translate(1313.304974, 399.75)"><g><path d="M 7.234375 -5.53125 L 5 -3.40625 L 5 0 L 1.984375 0 L 1.984375 -17.90625 L 5 -17.90625 L 5 -7.09375 L 11.25 -12.875 L 14.859375 -12.875 L 9.484375 -7.484375 L 15.375 0 L 11.703125 0 Z M 7.234375 -5.53125 "/></g></g></g><g fill="#8b0000" fill-opacity="1"><g transform="translate(1328.884719, 399.75)"><g><path d="M 9.71875 -0.703125 C 9.363281 -0.410156 8.929688 -0.191406 8.421875 -0.046875 C 7.921875 0.0976562 7.390625 0.171875 6.828125 0.171875 C 5.410156 0.171875 4.316406 -0.195312 3.546875 -0.9375 C 2.773438 -1.675781 2.390625 -2.753906 2.390625 -4.171875 L 2.390625 -10.375 L 0.265625 -10.375 L 0.265625 -12.78125 L 2.390625 -12.78125 L 2.390625 -15.734375 L 5.40625 -15.734375 L 5.40625 -12.78125 L 8.859375 -12.78125 L 8.859375 -10.375 L 5.40625 -10.375 L 5.40625 -4.25 C 5.40625 -3.625 5.554688 -3.144531 5.859375 -2.8125 C 6.171875 -2.476562 6.613281 -2.3125 7.1875 -2.3125 C 7.863281 -2.3125 8.425781 -2.488281 8.875 -2.84375 Z M 9.71875 -0.703125 "/></g></g></g><g fill="#8b0000" fill-opacity="1"><g transform="translate(1339.351634, 399.75)"><g><path d="M 1.984375 -12.875 L 5 -12.875 L 5 0 L 1.984375 0 Z M 3.5 -15 C 2.945312 -15 2.484375 -15.171875 2.109375 -15.515625 C 1.742188 -15.867188 1.5625 -16.300781 1.5625 -16.8125 C 1.5625 -17.332031 1.742188 -17.765625 2.109375 -18.109375 C 2.484375 -18.453125 2.945312 -18.625 3.5 -18.625 C 4.039062 -18.625 4.492188 -18.457031 4.859375 -18.125 C 5.234375 -17.800781 5.421875 -17.390625 5.421875 -16.890625 C 5.421875 -16.359375 5.238281 -15.910156 4.875 -15.546875 C 4.519531 -15.179688 4.0625 -15 3.5 -15 Z M 3.5 -15 "/></g></g></g><g fill="#8b0000" fill-opacity="1"><g transform="translate(1346.562727, 399.75)"><g><path d="M 5.953125 0.171875 C 4.910156 0.171875 3.890625 0.0351562 2.890625 -0.234375 C 1.898438 -0.515625 1.101562 -0.863281 0.5 -1.28125 L 1.671875 -3.578125 C 2.242188 -3.179688 2.9375 -2.867188 3.75 -2.640625 C 4.5625 -2.410156 5.363281 -2.296875 6.15625 -2.296875 C 7.957031 -2.296875 8.859375 -2.769531 8.859375 -3.71875 C 8.859375 -4.164062 8.628906 -4.476562 8.171875 -4.65625 C 7.710938 -4.832031 6.972656 -5 5.953125 -5.15625 C 4.890625 -5.320312 4.023438 -5.507812 3.359375 -5.71875 C 2.691406 -5.925781 2.113281 -6.289062 1.625 -6.8125 C 1.132812 -7.332031 0.890625 -8.0625 0.890625 -9 C 0.890625 -10.21875 1.398438 -11.191406 2.421875 -11.921875 C 3.441406 -12.660156 4.820312 -13.03125 6.5625 -13.03125 C 7.445312 -13.03125 8.332031 -12.925781 9.21875 -12.71875 C 10.101562 -12.519531 10.828125 -12.253906 11.390625 -11.921875 L 10.234375 -9.625 C 9.140625 -10.269531 7.90625 -10.59375 6.53125 -10.59375 C 5.65625 -10.59375 4.984375 -10.457031 4.515625 -10.1875 C 4.054688 -9.925781 3.828125 -9.578125 3.828125 -9.140625 C 3.828125 -8.660156 4.070312 -8.316406 4.5625 -8.109375 C 5.0625 -7.910156 5.820312 -7.722656 6.84375 -7.546875 C 7.875 -7.390625 8.71875 -7.207031 9.375 -7 C 10.039062 -6.789062 10.609375 -6.4375 11.078125 -5.9375 C 11.554688 -5.4375 11.796875 -4.726562 11.796875 -3.8125 C 11.796875 -2.601562 11.269531 -1.632812 10.21875 -0.90625 C 9.175781 -0.1875 7.753906 0.171875 5.953125 0.171875 Z M 5.953125 0.171875 "/></g></g></g><g fill="#8b0000" fill-opacity="1"><g transform="translate(1157.047559, 425.249999)"><g><path d="M 2.265625 -16.890625 L 9.65625 -16.890625 C 11.457031 -16.890625 13.054688 -16.535156 14.453125 -15.828125 C 15.847656 -15.128906 16.929688 -14.140625 17.703125 -12.859375 C 18.472656 -11.585938 18.859375 -10.113281 18.859375 -8.4375 C 18.859375 -6.769531 18.472656 -5.296875 17.703125 -4.015625 C 16.929688 -2.734375 15.847656 -1.742188 14.453125 -1.046875 C 13.054688 -0.347656 11.457031 0 9.65625 0 L 2.265625 0 Z M 9.5 -2.65625 C 10.738281 -2.65625 11.828125 -2.890625 12.765625 -3.359375 C 13.710938 -3.835938 14.4375 -4.515625 14.9375 -5.390625 C 15.445312 -6.265625 15.703125 -7.28125 15.703125 -8.4375 C 15.703125 -9.601562 15.445312 -10.625 14.9375 -11.5 C 14.4375 -12.375 13.710938 -13.046875 12.765625 -13.515625 C 11.828125 -13.992188 10.738281 -14.234375 9.5 -14.234375 L 5.40625 -14.234375 L 5.40625 -2.65625 Z M 9.5 -2.65625 "/></g></g></g><g fill="#8b0000" fill-opacity="1"><g transform="translate(1177.209573, 425.249999)"><g><path d="M 6.90625 -13.03125 C 8.800781 -13.03125 10.25 -12.570312 11.25 -11.65625 C 12.257812 -10.75 12.765625 -9.378906 12.765625 -7.546875 L 12.765625 0 L 9.921875 0 L 9.921875 -1.5625 C 9.546875 -1 9.015625 -0.566406 8.328125 -0.265625 C 7.648438 0.0234375 6.828125 0.171875 5.859375 0.171875 C 4.898438 0.171875 4.054688 0.0078125 3.328125 -0.3125 C 2.609375 -0.644531 2.050781 -1.101562 1.65625 -1.6875 C 1.257812 -2.28125 1.0625 -2.945312 1.0625 -3.6875 C 1.0625 -4.84375 1.488281 -5.769531 2.34375 -6.46875 C 3.207031 -7.175781 4.566406 -7.53125 6.421875 -7.53125 L 9.75 -7.53125 L 9.75 -7.71875 C 9.75 -8.625 9.476562 -9.316406 8.9375 -9.796875 C 8.394531 -10.273438 7.59375 -10.515625 6.53125 -10.515625 C 5.8125 -10.515625 5.101562 -10.398438 4.40625 -10.171875 C 3.707031 -9.953125 3.113281 -9.640625 2.625 -9.234375 L 1.453125 -11.4375 C 2.117188 -11.945312 2.925781 -12.335938 3.875 -12.609375 C 4.832031 -12.890625 5.84375 -13.03125 6.90625 -13.03125 Z M 6.484375 -2.03125 C 7.242188 -2.03125 7.914062 -2.203125 8.5 -2.546875 C 9.09375 -2.890625 9.507812 -3.382812 9.75 -4.03125 L 9.75 -5.53125 L 6.640625 -5.53125 C 4.898438 -5.53125 4.03125 -4.957031 4.03125 -3.8125 C 4.03125 -3.257812 4.242188 -2.820312 4.671875 -2.5 C 5.109375 -2.1875 5.710938 -2.03125 6.484375 -2.03125 Z M 6.484375 -2.03125 "/></g></g></g><g fill="#8b0000" fill-opacity="1"><g transform="translate(1192.089922, 425.249999)"><g><path d="M 9.28125 -13.03125 C 10.90625 -13.03125 12.207031 -12.554688 13.1875 -11.609375 C 14.175781 -10.660156 14.671875 -9.25 14.671875 -7.375 L 14.671875 0 L 11.65625 0 L 11.65625 -7 C 11.65625 -8.125 11.390625 -8.96875 10.859375 -9.53125 C 10.328125 -10.101562 9.570312 -10.390625 8.59375 -10.390625 C 7.476562 -10.390625 6.597656 -10.054688 5.953125 -9.390625 C 5.316406 -8.722656 5 -7.765625 5 -6.515625 L 5 0 L 1.984375 0 L 1.984375 -12.875 L 4.84375 -12.875 L 4.84375 -11.21875 C 5.34375 -11.8125 5.96875 -12.257812 6.71875 -12.5625 C 7.476562 -12.875 8.332031 -13.03125 9.28125 -13.03125 Z M 9.28125 -13.03125 "/></g></g></g><g fill="#8b0000" fill-opacity="1"><g transform="translate(1208.851413, 425.249999)"><g/></g></g><g fill="#8b0000" fill-opacity="1"><g transform="translate(1215.748984, 425.249999)"><g><path d="M 5.6875 -14.234375 L 0.09375 -14.234375 L 0.09375 -16.890625 L 14.421875 -16.890625 L 14.421875 -14.234375 L 8.828125 -14.234375 L 8.828125 0 L 5.6875 0 Z M 5.6875 -14.234375 "/></g></g></g><g fill="#8b0000" fill-opacity="1"><g transform="translate(1230.50875, 425.249999)"><g><path d="M 14.09375 -6.375 C 14.09375 -6.164062 14.078125 -5.863281 14.046875 -5.46875 L 3.9375 -5.46875 C 4.113281 -4.519531 4.570312 -3.769531 5.3125 -3.21875 C 6.0625 -2.664062 6.992188 -2.390625 8.109375 -2.390625 C 9.523438 -2.390625 10.691406 -2.851562 11.609375 -3.78125 L 13.21875 -1.9375 C 12.644531 -1.238281 11.914062 -0.710938 11.03125 -0.359375 C 10.144531 -0.00390625 9.144531 0.171875 8.03125 0.171875 C 6.613281 0.171875 5.363281 -0.109375 4.28125 -0.671875 C 3.207031 -1.234375 2.378906 -2.015625 1.796875 -3.015625 C 1.210938 -4.023438 0.921875 -5.164062 0.921875 -6.4375 C 0.921875 -7.695312 1.203125 -8.828125 1.765625 -9.828125 C 2.335938 -10.835938 3.128906 -11.625 4.140625 -12.1875 C 5.160156 -12.75 6.304688 -13.03125 7.578125 -13.03125 C 8.828125 -13.03125 9.945312 -12.75 10.9375 -12.1875 C 11.925781 -11.632812 12.695312 -10.851562 13.25 -9.84375 C 13.8125 -8.84375 14.09375 -7.6875 14.09375 -6.375 Z M 7.578125 -10.609375 C 6.609375 -10.609375 5.789062 -10.320312 5.125 -9.75 C 4.457031 -9.1875 4.050781 -8.429688 3.90625 -7.484375 L 11.21875 -7.484375 C 11.09375 -8.410156 10.695312 -9.160156 10.03125 -9.734375 C 9.375 -10.316406 8.554688 -10.609375 7.578125 -10.609375 Z M 7.578125 -10.609375 "/></g></g></g><g fill="#8b0000" fill-opacity="1"><g transform="translate(1245.75086, 425.249999)"><g><path d="M 4.84375 -11 C 5.71875 -12.351562 7.25 -13.03125 9.4375 -13.03125 L 9.4375 -10.15625 C 9.175781 -10.207031 8.941406 -10.234375 8.734375 -10.234375 C 7.554688 -10.234375 6.640625 -9.890625 5.984375 -9.203125 C 5.328125 -8.515625 5 -7.53125 5 -6.25 L 5 0 L 1.984375 0 L 1.984375 -12.875 L 4.84375 -12.875 Z M 4.84375 -11 "/></g></g></g><g fill="#8b0000" fill-opacity="1"><g transform="translate(1256.121301, 425.249999)"><g><path d="M 0.65625 4.84375 C -0.613281 4.84375 -1.582031 4.59375 -2.25 4.09375 L -1.375 1.859375 C -0.925781 2.191406 -0.335938 2.359375 0.390625 2.359375 C 0.953125 2.359375 1.378906 2.1875 1.671875 1.84375 C 1.972656 1.5 2.125 0.988281 2.125 0.3125 L 2.125 -12.875 L 5.140625 -12.875 L 5.140625 0.234375 C 5.140625 1.671875 4.742188 2.796875 3.953125 3.609375 C 3.171875 4.429688 2.070312 4.84375 0.65625 4.84375 Z M 3.625 -15 C 3.070312 -15 2.609375 -15.171875 2.234375 -15.515625 C 1.867188 -15.867188 1.6875 -16.300781 1.6875 -16.8125 C 1.6875 -17.332031 1.867188 -17.765625 2.234375 -18.109375 C 2.609375 -18.453125 3.070312 -18.625 3.625 -18.625 C 4.164062 -18.625 4.617188 -18.457031 4.984375 -18.125 C 5.359375 -17.800781 5.546875 -17.390625 5.546875 -16.890625 C 5.546875 -16.359375 5.363281 -15.910156 5 -15.546875 C 4.644531 -15.179688 4.1875 -15 3.625 -15 Z M 3.625 -15 "/></g></g></g><g fill="#8b0000" fill-opacity="1"><g transform="translate(1263.477094, 425.249999)"><g><path d="M 6.90625 -13.03125 C 8.800781 -13.03125 10.25 -12.570312 11.25 -11.65625 C 12.257812 -10.75 12.765625 -9.378906 12.765625 -7.546875 L 12.765625 0 L 9.921875 0 L 9.921875 -1.5625 C 9.546875 -1 9.015625 -0.566406 8.328125 -0.265625 C 7.648438 0.0234375 6.828125 0.171875 5.859375 0.171875 C 4.898438 0.171875 4.054688 0.0078125 3.328125 -0.3125 C 2.609375 -0.644531 2.050781 -1.101562 1.65625 -1.6875 C 1.257812 -2.28125 1.0625 -2.945312 1.0625 -3.6875 C 1.0625 -4.84375 1.488281 -5.769531 2.34375 -6.46875 C 3.207031 -7.175781 4.566406 -7.53125 6.421875 -7.53125 L 9.75 -7.53125 L 9.75 -7.71875 C 9.75 -8.625 9.476562 -9.316406 8.9375 -9.796875 C 8.394531 -10.273438 7.59375 -10.515625 6.53125 -10.515625 C 5.8125 -10.515625 5.101562 -10.398438 4.40625 -10.171875 C 3.707031 -9.953125 3.113281 -9.640625 2.625 -9.234375 L 1.453125 -11.4375 C 2.117188 -11.945312 2.925781 -12.335938 3.875 -12.609375 C 4.832031 -12.890625 5.84375 -13.03125 6.90625 -13.03125 Z M 6.484375 -2.03125 C 7.242188 -2.03125 7.914062 -2.203125 8.5 -2.546875 C 9.09375 -2.890625 9.507812 -3.382812 9.75 -4.03125 L 9.75 -5.53125 L 6.640625 -5.53125 C 4.898438 -5.53125 4.03125 -4.957031 4.03125 -3.8125 C 4.03125 -3.257812 4.242188 -2.820312 4.671875 -2.5 C 5.109375 -2.1875 5.710938 -2.03125 6.484375 -2.03125 Z M 6.484375 -2.03125 "/></g></g></g><g fill="#8b0000" fill-opacity="1"><g transform="translate(1278.357445, 425.249999)"><g><path d="M 9.28125 -13.03125 C 10.90625 -13.03125 12.207031 -12.554688 13.1875 -11.609375 C 14.175781 -10.660156 14.671875 -9.25 14.671875 -7.375 L 14.671875 0 L 11.65625 0 L 11.65625 -7 C 11.65625 -8.125 11.390625 -8.96875 10.859375 -9.53125 C 10.328125 -10.101562 9.570312 -10.390625 8.59375 -10.390625 C 7.476562 -10.390625 6.597656 -10.054688 5.953125 -9.390625 C 5.316406 -8.722656 5 -7.765625 5 -6.515625 L 5 0 L 1.984375 0 L 1.984375 -12.875 L 4.84375 -12.875 L 4.84375 -11.21875 C 5.34375 -11.8125 5.96875 -12.257812 6.71875 -12.5625 C 7.476562 -12.875 8.332031 -13.03125 9.28125 -13.03125 Z M 9.28125 -13.03125 "/></g></g></g><g fill="#8b0000" fill-opacity="1"><g transform="translate(1295.118941, 425.249999)"><g><path d="M 14.765625 -12.875 L 14.765625 -1.953125 C 14.765625 2.578125 12.445312 4.84375 7.8125 4.84375 C 6.570312 4.84375 5.394531 4.6875 4.28125 4.375 C 3.175781 4.0625 2.265625 3.609375 1.546875 3.015625 L 2.890625 0.75 C 3.453125 1.21875 4.164062 1.59375 5.03125 1.875 C 5.894531 2.15625 6.765625 2.296875 7.640625 2.296875 C 9.054688 2.296875 10.09375 1.972656 10.75 1.328125 C 11.414062 0.679688 11.75 -0.296875 11.75 -1.609375 L 11.75 -2.296875 C 11.238281 -1.734375 10.609375 -1.304688 9.859375 -1.015625 C 9.117188 -0.722656 8.3125 -0.578125 7.4375 -0.578125 C 6.207031 -0.578125 5.097656 -0.835938 4.109375 -1.359375 C 3.117188 -1.878906 2.335938 -2.613281 1.765625 -3.5625 C 1.203125 -4.519531 0.921875 -5.609375 0.921875 -6.828125 C 0.921875 -8.046875 1.203125 -9.125 1.765625 -10.0625 C 2.335938 -11.007812 3.117188 -11.738281 4.109375 -12.25 C 5.097656 -12.769531 6.207031 -13.03125 7.4375 -13.03125 C 8.363281 -13.03125 9.207031 -12.875 9.96875 -12.5625 C 10.738281 -12.257812 11.378906 -11.796875 11.890625 -11.171875 L 11.890625 -12.875 Z M 7.890625 -3.140625 C 9.035156 -3.140625 9.972656 -3.476562 10.703125 -4.15625 C 11.429688 -4.84375 11.796875 -5.734375 11.796875 -6.828125 C 11.796875 -7.898438 11.429688 -8.773438 10.703125 -9.453125 C 9.972656 -10.128906 9.035156 -10.46875 7.890625 -10.46875 C 6.734375 -10.46875 5.785156 -10.128906 5.046875 -9.453125 C 4.316406 -8.773438 3.953125 -7.898438 3.953125 -6.828125 C 3.953125 -5.734375 4.316406 -4.84375 5.046875 -4.15625 C 5.785156 -3.476562 6.734375 -3.140625 7.890625 -3.140625 Z M 7.890625 -3.140625 "/></g></g></g><g fill="#8b0000" fill-opacity="1"><g transform="translate(1312.097487, 425.249999)"><g><path d="M 7.234375 -5.53125 L 5 -3.40625 L 5 0 L 1.984375 0 L 1.984375 -17.90625 L 5 -17.90625 L 5 -7.09375 L 11.25 -12.875 L 14.859375 -12.875 L 9.484375 -7.484375 L 15.375 0 L 11.703125 0 Z M 7.234375 -5.53125 "/></g></g></g><g fill="#8b0000" fill-opacity="1"><g transform="translate(1327.677232, 425.249999)"><g><path d="M 6.90625 -13.03125 C 8.800781 -13.03125 10.25 -12.570312 11.25 -11.65625 C 12.257812 -10.75 12.765625 -9.378906 12.765625 -7.546875 L 12.765625 0 L 9.921875 0 L 9.921875 -1.5625 C 9.546875 -1 9.015625 -0.566406 8.328125 -0.265625 C 7.648438 0.0234375 6.828125 0.171875 5.859375 0.171875 C 4.898438 0.171875 4.054688 0.0078125 3.328125 -0.3125 C 2.609375 -0.644531 2.050781 -1.101562 1.65625 -1.6875 C 1.257812 -2.28125 1.0625 -2.945312 1.0625 -3.6875 C 1.0625 -4.84375 1.488281 -5.769531 2.34375 -6.46875 C 3.207031 -7.175781 4.566406 -7.53125 6.421875 -7.53125 L 9.75 -7.53125 L 9.75 -7.71875 C 9.75 -8.625 9.476562 -9.316406 8.9375 -9.796875 C 8.394531 -10.273438 7.59375 -10.515625 6.53125 -10.515625 C 5.8125 -10.515625 5.101562 -10.398438 4.40625 -10.171875 C 3.707031 -9.953125 3.113281 -9.640625 2.625 -9.234375 L 1.453125 -11.4375 C 2.117188 -11.945312 2.925781 -12.335938 3.875 -12.609375 C 4.832031 -12.890625 5.84375 -13.03125 6.90625 -13.03125 Z M 6.484375 -2.03125 C 7.242188 -2.03125 7.914062 -2.203125 8.5 -2.546875 C 9.09375 -2.890625 9.507812 -3.382812 9.75 -4.03125 L 9.75 -5.53125 L 6.640625 -5.53125 C 4.898438 -5.53125 4.03125 -4.957031 4.03125 -3.8125 C 4.03125 -3.257812 4.242188 -2.820312 4.671875 -2.5 C 5.109375 -2.1875 5.710938 -2.03125 6.484375 -2.03125 Z M 6.484375 -2.03125 "/></g></g></g><g fill="#8b0000" fill-opacity="1"><g transform="translate(1342.557583, 425.249999)"><g><path d="M 14.453125 -12.875 L 14.453125 0 L 11.578125 0 L 11.578125 -1.640625 C 11.097656 -1.054688 10.492188 -0.609375 9.765625 -0.296875 C 9.046875 0.015625 8.269531 0.171875 7.4375 0.171875 C 5.707031 0.171875 4.347656 -0.304688 3.359375 -1.265625 C 2.367188 -2.222656 1.875 -3.644531 1.875 -5.53125 L 1.875 -12.875 L 4.890625 -12.875 L 4.890625 -5.9375 C 4.890625 -4.78125 5.148438 -3.914062 5.671875 -3.34375 C 6.203125 -2.769531 6.945312 -2.484375 7.90625 -2.484375 C 8.988281 -2.484375 9.847656 -2.816406 10.484375 -3.484375 C 11.117188 -4.148438 11.4375 -5.113281 11.4375 -6.375 L 11.4375 -12.875 Z M 14.453125 -12.875 "/></g></g></g><g fill="#8b0000" fill-opacity="1"><g transform="translate(1234.15693, 450.749997)"><g><path d="M 2.265625 -16.890625 L 9.65625 -16.890625 C 11.457031 -16.890625 13.054688 -16.535156 14.453125 -15.828125 C 15.847656 -15.128906 16.929688 -14.140625 17.703125 -12.859375 C 18.472656 -11.585938 18.859375 -10.113281 18.859375 -8.4375 C 18.859375 -6.769531 18.472656 -5.296875 17.703125 -4.015625 C 16.929688 -2.734375 15.847656 -1.742188 14.453125 -1.046875 C 13.054688 -0.347656 11.457031 0 9.65625 0 L 2.265625 0 Z M 9.5 -2.65625 C 10.738281 -2.65625 11.828125 -2.890625 12.765625 -3.359375 C 13.710938 -3.835938 14.4375 -4.515625 14.9375 -5.390625 C 15.445312 -6.265625 15.703125 -7.28125 15.703125 -8.4375 C 15.703125 -9.601562 15.445312 -10.625 14.9375 -11.5 C 14.4375 -12.375 13.710938 -13.046875 12.765625 -13.515625 C 11.828125 -13.992188 10.738281 -14.234375 9.5 -14.234375 L 5.40625 -14.234375 L 5.40625 -2.65625 Z M 9.5 -2.65625 "/></g></g></g><g fill="#8b0000" fill-opacity="1"><g transform="translate(1254.318944, 450.749997)"><g><path d="M 6.90625 -13.03125 C 8.800781 -13.03125 10.25 -12.570312 11.25 -11.65625 C 12.257812 -10.75 12.765625 -9.378906 12.765625 -7.546875 L 12.765625 0 L 9.921875 0 L 9.921875 -1.5625 C 9.546875 -1 9.015625 -0.566406 8.328125 -0.265625 C 7.648438 0.0234375 6.828125 0.171875 5.859375 0.171875 C 4.898438 0.171875 4.054688 0.0078125 3.328125 -0.3125 C 2.609375 -0.644531 2.050781 -1.101562 1.65625 -1.6875 C 1.257812 -2.28125 1.0625 -2.945312 1.0625 -3.6875 C 1.0625 -4.84375 1.488281 -5.769531 2.34375 -6.46875 C 3.207031 -7.175781 4.566406 -7.53125 6.421875 -7.53125 L 9.75 -7.53125 L 9.75 -7.71875 C 9.75 -8.625 9.476562 -9.316406 8.9375 -9.796875 C 8.394531 -10.273438 7.59375 -10.515625 6.53125 -10.515625 C 5.8125 -10.515625 5.101562 -10.398438 4.40625 -10.171875 C 3.707031 -9.953125 3.113281 -9.640625 2.625 -9.234375 L 1.453125 -11.4375 C 2.117188 -11.945312 2.925781 -12.335938 3.875 -12.609375 C 4.832031 -12.890625 5.84375 -13.03125 6.90625 -13.03125 Z M 6.484375 -2.03125 C 7.242188 -2.03125 7.914062 -2.203125 8.5 -2.546875 C 9.09375 -2.890625 9.507812 -3.382812 9.75 -4.03125 L 9.75 -5.53125 L 6.640625 -5.53125 C 4.898438 -5.53125 4.03125 -4.957031 4.03125 -3.8125 C 4.03125 -3.257812 4.242188 -2.820312 4.671875 -2.5 C 5.109375 -2.1875 5.710938 -2.03125 6.484375 -2.03125 Z M 6.484375 -2.03125 "/></g></g></g><g fill="#8b0000" fill-opacity="1"><g transform="translate(1269.199293, 450.749997)"><g><path d="M 4.84375 -11 C 5.71875 -12.351562 7.25 -13.03125 9.4375 -13.03125 L 9.4375 -10.15625 C 9.175781 -10.207031 8.941406 -10.234375 8.734375 -10.234375 C 7.554688 -10.234375 6.640625 -9.890625 5.984375 -9.203125 C 5.328125 -8.515625 5 -7.53125 5 -6.25 L 5 0 L 1.984375 0 L 1.984375 -12.875 L 4.84375 -12.875 Z M 4.84375 -11 "/></g></g></g><g fill="#8b0000" fill-opacity="1"><g transform="translate(1279.569731, 450.749997)"><g><path d="M 1.984375 -12.875 L 5 -12.875 L 5 0 L 1.984375 0 Z M 3.5 -15 C 2.945312 -15 2.484375 -15.171875 2.109375 -15.515625 C 1.742188 -15.867188 1.5625 -16.300781 1.5625 -16.8125 C 1.5625 -17.332031 1.742188 -17.765625 2.109375 -18.109375 C 2.484375 -18.453125 2.945312 -18.625 3.5 -18.625 C 4.039062 -18.625 4.492188 -18.457031 4.859375 -18.125 C 5.234375 -17.800781 5.421875 -17.390625 5.421875 -16.890625 C 5.421875 -16.359375 5.238281 -15.910156 4.875 -15.546875 C 4.519531 -15.179688 4.0625 -15 3.5 -15 Z M 3.5 -15 "/></g></g></g><g fill="#8b0000" fill-opacity="1"><g transform="translate(1286.780822, 450.749997)"><g/></g></g><g fill="#8b0000" fill-opacity="1"><g transform="translate(1293.678393, 450.749997)"><g><path d="M 8.078125 -7.0625 L 5.40625 -4.3125 L 5.40625 0 L 2.265625 0 L 2.265625 -16.890625 L 5.40625 -16.890625 L 5.40625 -8.234375 L 13.75 -16.890625 L 17.28125 -16.890625 L 10.1875 -9.34375 L 17.703125 0 L 14.046875 0 Z M 8.078125 -7.0625 "/></g></g></g><g fill="#8b0000" fill-opacity="1"><g transform="translate(1311.501043, 450.749997)"><g><path d="M 6.90625 -13.03125 C 8.800781 -13.03125 10.25 -12.570312 11.25 -11.65625 C 12.257812 -10.75 12.765625 -9.378906 12.765625 -7.546875 L 12.765625 0 L 9.921875 0 L 9.921875 -1.5625 C 9.546875 -1 9.015625 -0.566406 8.328125 -0.265625 C 7.648438 0.0234375 6.828125 0.171875 5.859375 0.171875 C 4.898438 0.171875 4.054688 0.0078125 3.328125 -0.3125 C 2.609375 -0.644531 2.050781 -1.101562 1.65625 -1.6875 C 1.257812 -2.28125 1.0625 -2.945312 1.0625 -3.6875 C 1.0625 -4.84375 1.488281 -5.769531 2.34375 -6.46875 C 3.207031 -7.175781 4.566406 -7.53125 6.421875 -7.53125 L 9.75 -7.53125 L 9.75 -7.71875 C 9.75 -8.625 9.476562 -9.316406 8.9375 -9.796875 C 8.394531 -10.273438 7.59375 -10.515625 6.53125 -10.515625 C 5.8125 -10.515625 5.101562 -10.398438 4.40625 -10.171875 C 3.707031 -9.953125 3.113281 -9.640625 2.625 -9.234375 L 1.453125 -11.4375 C 2.117188 -11.945312 2.925781 -12.335938 3.875 -12.609375 C 4.832031 -12.890625 5.84375 -13.03125 6.90625 -13.03125 Z M 6.484375 -2.03125 C 7.242188 -2.03125 7.914062 -2.203125 8.5 -2.546875 C 9.09375 -2.890625 9.507812 -3.382812 9.75 -4.03125 L 9.75 -5.53125 L 6.640625 -5.53125 C 4.898438 -5.53125 4.03125 -4.957031 4.03125 -3.8125 C 4.03125 -3.257812 4.242188 -2.820312 4.671875 -2.5 C 5.109375 -2.1875 5.710938 -2.03125 6.484375 -2.03125 Z M 6.484375 -2.03125 "/></g></g></g><g fill="#8b0000" fill-opacity="1"><g transform="translate(1326.381394, 450.749997)"><g><path d="M 18.234375 -13.03125 C 19.859375 -13.03125 21.144531 -12.554688 22.09375 -11.609375 C 23.039062 -10.671875 23.515625 -9.257812 23.515625 -7.375 L 23.515625 0 L 20.5 0 L 20.5 -7 C 20.5 -8.125 20.25 -8.96875 19.75 -9.53125 C 19.257812 -10.101562 18.546875 -10.390625 17.609375 -10.390625 C 16.597656 -10.390625 15.785156 -10.054688 15.171875 -9.390625 C 14.566406 -8.722656 14.265625 -7.769531 14.265625 -6.53125 L 14.265625 0 L 11.25 0 L 11.25 -7 C 11.25 -8.125 11 -8.96875 10.5 -9.53125 C 10 -10.101562 9.28125 -10.390625 8.34375 -10.390625 C 7.3125 -10.390625 6.492188 -10.0625 5.890625 -9.40625 C 5.296875 -8.75 5 -7.789062 5 -6.53125 L 5 0 L 1.984375 0 L 1.984375 -12.875 L 4.84375 -12.875 L 4.84375 -11.25 C 5.332031 -11.820312 5.9375 -12.257812 6.65625 -12.5625 C 7.382812 -12.875 8.191406 -13.03125 9.078125 -13.03125 C 10.035156 -13.03125 10.890625 -12.847656 11.640625 -12.484375 C 12.390625 -12.117188 12.976562 -11.582031 13.40625 -10.875 C 13.9375 -11.550781 14.617188 -12.078125 15.453125 -12.453125 C 16.296875 -12.835938 17.222656 -13.03125 18.234375 -13.03125 Z M 18.234375 -13.03125 "/></g></g></g><g fill="#8b0000" fill-opacity="1"><g transform="translate(1352.018001, 450.749997)"><g><path d="M 1.984375 -12.875 L 5 -12.875 L 5 0 L 1.984375 0 Z M 3.5 -15 C 2.945312 -15 2.484375 -15.171875 2.109375 -15.515625 C 1.742188 -15.867188 1.5625 -16.300781 1.5625 -16.8125 C 1.5625 -17.332031 1.742188 -17.765625 2.109375 -18.109375 C 2.484375 -18.453125 2.945312 -18.625 3.5 -18.625 C 4.039062 -18.625 4.492188 -18.457031 4.859375 -18.125 C 5.234375 -17.800781 5.421875 -17.390625 5.421875 -16.890625 C 5.421875 -16.359375 5.238281 -15.910156 4.875 -15.546875 C 4.519531 -15.179688 4.0625 -15 3.5 -15 Z M 3.5 -15 "/></g></g></g></svg>