<svg xmlns="http://www.w3.org/2000/svg" xmlns:xlink="http://www.w3.org/1999/xlink" width="500" zoomAndPan="magnify" viewBox="0 0 375 374.999991" height="500" preserveAspectRatio="xMidYMid meet" version="1.0"><defs><g/><clipPath id="88daa23f97"><path d="M 140.828125 236.414062 L 234.171875 236.414062 L 234.171875 247.832031 L 140.828125 247.832031 Z M 140.828125 236.414062 " clip-rule="nonzero"/></clipPath><clipPath id="47dc809137"><path d="M 120.613281 148.460938 L 254.199219 148.460938 L 254.199219 178 L 120.613281 178 Z M 120.613281 148.460938 " clip-rule="nonzero"/></clipPath><clipPath id="cb460233bc"><path d="M 150.488281 67.585938 L 188.242188 67.585938 L 188.242188 143.757812 L 150.488281 143.757812 Z M 150.488281 67.585938 " clip-rule="nonzero"/></clipPath><clipPath id="88ca07d27e"><path d="M 163.972656 82.015625 L 188.242188 82.015625 L 188.242188 110.875 L 163.972656 110.875 Z M 163.972656 82.015625 " clip-rule="nonzero"/></clipPath><clipPath id="fd117da533"><path d="M 181.890625 68.527344 L 219.648438 68.527344 L 219.648438 144.695312 L 181.890625 144.695312 Z M 181.890625 68.527344 " clip-rule="nonzero"/></clipPath><clipPath id="3c48c4848c"><path d="M 195.375 82.957031 L 219.648438 82.957031 L 219.648438 111.816406 L 195.375 111.816406 Z M 195.375 82.957031 " clip-rule="nonzero"/></clipPath><clipPath id="3a719fc11d"><path d="M 120.425781 174.964844 L 254.011719 174.964844 L 254.011719 241.757812 L 120.425781 241.757812 Z M 120.425781 174.964844 " clip-rule="nonzero"/></clipPath><clipPath id="383ff6d122"><path d="M 116.519531 159.664062 L 116.96875 159.664062 L 116.96875 159.980469 L 116.519531 159.980469 Z M 116.519531 159.664062 " clip-rule="nonzero"/></clipPath><clipPath id="36515e0975"><path d="M 116.941406 159.871094 C 116.097656 160.15625 116.847656 159.683594 116.847656 159.683594 " clip-rule="nonzero"/></clipPath></defs><rect x="-37.5" width="450" fill="#ffffff" y="-37.499999" height="449.999989" fill-opacity="1"/><rect x="-37.5" width="450" fill="#ffffff" y="-37.499999" height="449.999989" fill-opacity="1"/><g clip-path="url(#88daa23f97)"><path fill="#361509" d="M 140.828125 236.414062 L 234.15625 236.414062 L 234.15625 247.832031 L 140.828125 247.832031 Z M 140.828125 236.414062 " fill-opacity="1" fill-rule="nonzero"/></g><path stroke-linecap="butt" transform="matrix(0.940762, 0, 0, 0.940762, 46.266666, 243.129286)" fill="none" stroke-linejoin="miter" d="M -0.00110683 4.998868 L 300.254159 4.998868 " stroke="#997950" stroke-width="10" stroke-opacity="1" stroke-miterlimit="4"/><g clip-path="url(#47dc809137)"><path fill="#000000" d="M 250.621094 172.707031 C 250.136719 172.707031 249.675781 172.804688 249.230469 172.984375 C 248.371094 172.152344 247.210938 171.679688 246.011719 171.679688 C 244.816406 171.679688 243.894531 172.054688 243.074219 172.746094 C 242.09375 171.703125 240.726562 171.113281 239.289062 171.113281 C 237.851562 171.113281 238.816406 171.125 238.589844 171.160156 C 237.453125 168.378906 234.71875 166.527344 231.695312 166.527344 C 228.671875 166.527344 225.890625 168.402344 224.78125 171.234375 C 224.429688 171.160156 224.066406 171.125 223.703125 171.125 C 222.375 171.125 221.09375 171.632812 220.136719 172.550781 C 218.976562 170.699219 216.992188 169.503906 214.804688 169.371094 C 214.851562 169.03125 214.878906 168.679688 214.878906 168.332031 C 214.878906 166.128906 213.886719 164.171875 212.324219 162.851562 C 213.148438 161.824219 214.34375 161.136719 215.652344 160.953125 C 215.796875 160.929688 215.894531 160.820312 215.917969 160.6875 C 215.929688 160.53125 215.953125 160.375 215.976562 160.230469 C 216.582031 156.347656 220.246094 153.6875 224.128906 154.304688 C 225.941406 154.59375 227.5625 155.550781 228.671875 157.011719 C 228.769531 157.132812 228.9375 157.171875 229.074219 157.085938 C 229.726562 156.675781 230.5 156.515625 231.25 156.636719 C 232.964844 156.90625 234.136719 158.523438 233.871094 160.242188 C 233.859375 160.328125 233.882812 160.421875 233.945312 160.484375 C 234.003906 160.554688 234.089844 160.59375 234.175781 160.582031 C 234.5 160.582031 234.828125 160.582031 235.140625 160.640625 C 236.496094 160.859375 237.679688 161.582031 238.492188 162.683594 C 239.300781 163.796875 239.628906 165.152344 239.410156 166.503906 C 239.386719 166.675781 239.496094 166.820312 239.664062 166.855469 C 239.675781 166.855469 239.699219 166.855469 239.710938 166.855469 C 239.859375 166.855469 239.992188 166.746094 240.015625 166.601562 C 240.257812 165.089844 239.882812 163.578125 238.988281 162.332031 C 238.082031 161.101562 236.75 160.277344 235.238281 160.046875 C 234.996094 160.011719 234.753906 159.988281 234.5 159.976562 C 234.621094 158.066406 233.257812 156.335938 231.332031 156.035156 C 230.523438 155.902344 229.6875 156.046875 228.976562 156.433594 C 227.777344 154.96875 226.085938 154.003906 224.210938 153.710938 C 220.003906 153.046875 216.039062 155.9375 215.371094 160.144531 C 215.359375 160.230469 215.347656 160.3125 215.335938 160.410156 C 213.957031 160.652344 212.710938 161.402344 211.84375 162.492188 C 210.667969 161.65625 209.242188 161.171875 207.707031 161.171875 C 206.171875 161.171875 207.042969 161.195312 206.703125 161.246094 C 206.511719 158.839844 204.492188 156.941406 202.046875 156.941406 C 199.605469 156.941406 199.992188 157.292969 199.171875 157.933594 C 197.394531 156.324219 195.09375 155.441406 192.6875 155.441406 C 190.28125 155.441406 189.085938 155.949219 187.550781 156.917969 C 186.367188 151.984375 181.929688 148.476562 176.851562 148.476562 C 171.769531 148.476562 172.109375 149.25 170.175781 150.726562 C 168.363281 152.105469 166.996094 154.050781 166.316406 156.214844 C 164.164062 156.480469 162.132812 157.328125 160.429688 158.683594 C 158.882812 156.953125 156.691406 155.972656 154.371094 155.972656 C 150.128906 155.972656 146.597656 159.273438 146.257812 163.445312 C 144.808594 162.441406 143.125 161.910156 141.335938 161.910156 C 136.644531 161.910156 132.8125 165.683594 132.714844 170.351562 C 131.980469 170.011719 131.15625 169.832031 130.335938 169.832031 C 128.582031 169.832031 126.925781 170.652344 125.847656 172.03125 C 125.558594 171.96875 125.253906 171.933594 124.953125 171.933594 C 122.558594 171.933594 120.613281 173.878906 120.613281 176.273438 C 120.613281 178.667969 120.746094 176.578125 120.914062 176.578125 C 121.085938 176.578125 121.21875 176.445312 121.21875 176.273438 C 121.21875 174.21875 122.898438 172.539062 124.953125 172.539062 C 127.007812 172.539062 125.59375 172.574219 125.898438 172.660156 C 126.015625 172.695312 126.152344 172.648438 126.222656 172.539062 C 127.179688 171.21875 128.714844 170.433594 130.335938 170.433594 C 131.953125 170.433594 132.097656 170.664062 132.859375 171.113281 C 132.957031 171.171875 133.078125 171.160156 133.164062 171.113281 C 133.261719 171.050781 133.308594 170.953125 133.308594 170.847656 C 133.308594 170.75 133.308594 170.652344 133.308594 170.542969 C 133.308594 166.117188 136.910156 162.515625 141.335938 162.515625 C 145.761719 162.515625 144.808594 163.082031 146.210938 164.171875 C 144.433594 165.585938 143.285156 167.773438 143.285156 170.21875 C 143.285156 172.660156 143.417969 170.519531 143.585938 170.519531 C 143.753906 170.519531 143.886719 170.386719 143.886719 170.21875 C 143.886719 166.289062 147.082031 163.09375 151.011719 163.09375 C 154.941406 163.09375 154.589844 163.796875 155.917969 165.066406 C 156.027344 165.175781 156.210938 165.175781 156.332031 165.066406 C 156.910156 164.558594 157.648438 164.28125 158.410156 164.28125 C 160.140625 164.28125 161.566406 165.695312 161.566406 167.425781 C 161.566406 167.507812 161.601562 167.59375 161.675781 167.652344 C 161.746094 167.714844 161.832031 167.738281 161.929688 167.714844 C 162.242188 167.652344 162.570312 167.628906 162.894531 167.628906 C 165.726562 167.628906 168.023438 169.925781 168.023438 172.757812 C 168.023438 175.585938 168.15625 173.058594 168.324219 173.058594 C 168.496094 173.058594 168.628906 172.925781 168.628906 172.757812 C 168.628906 169.601562 166.050781 167.023438 162.894531 167.023438 C 159.742188 167.023438 162.402344 167.035156 162.160156 167.074219 C 161.976562 165.175781 160.367188 163.675781 158.410156 163.675781 C 156.453125 163.675781 156.789062 163.941406 156.136719 164.4375 C 154.722656 163.179688 152.910156 162.492188 151 162.492188 C 149.085938 162.492188 148.035156 162.9375 146.828125 163.710938 C 147.042969 159.746094 150.359375 156.578125 154.359375 156.578125 C 158.363281 156.578125 158.710938 157.570312 160.152344 159.296875 C 160.199219 159.359375 160.273438 159.394531 160.355469 159.40625 C 160.441406 159.40625 160.515625 159.394531 160.574219 159.335938 C 162.28125 157.894531 164.359375 157.023438 166.570312 156.796875 C 166.691406 156.785156 166.800781 156.699219 166.824219 156.578125 C 168.121094 152.164062 172.230469 149.09375 176.824219 149.09375 C 181.421875 149.09375 186.0625 152.601562 187.042969 157.4375 C 187.066406 157.535156 187.128906 157.617188 187.222656 157.652344 C 187.320312 157.691406 187.429688 157.679688 187.515625 157.617188 C 189.039062 156.566406 190.828125 156.007812 192.675781 156.007812 C 194.527344 156.007812 197.246094 156.90625 198.941406 158.511719 C 199.050781 158.621094 199.230469 158.621094 199.351562 158.511719 C 200.089844 157.859375 201.042969 157.496094 202.035156 157.496094 C 204.273438 157.496094 206.097656 159.3125 206.097656 161.546875 C 206.097656 161.632812 206.136719 161.71875 206.207031 161.777344 C 206.28125 161.835938 206.363281 161.863281 206.460938 161.835938 C 206.871094 161.765625 207.285156 161.71875 207.695312 161.71875 C 211.308594 161.71875 214.261719 164.65625 214.261719 168.28125 C 214.261719 171.910156 214.222656 169.128906 214.140625 169.550781 C 214.128906 169.636719 214.140625 169.734375 214.199219 169.804688 C 214.261719 169.878906 214.34375 169.914062 214.429688 169.914062 C 216.667969 169.9375 218.722656 171.183594 219.796875 173.144531 C 219.847656 173.226562 219.929688 173.289062 220.027344 173.300781 C 220.125 173.300781 220.222656 173.277344 220.28125 173.203125 C 221.152344 172.238281 222.386719 171.691406 223.691406 171.691406 C 224.996094 171.691406 224.488281 171.742188 224.875 171.847656 C 225.035156 171.886719 225.191406 171.8125 225.238281 171.65625 C 226.207031 168.933594 228.792969 167.109375 231.683594 167.109375 C 234.574219 167.109375 237.113281 168.910156 238.09375 171.582031 C 238.140625 171.714844 238.285156 171.800781 238.429688 171.777344 C 238.710938 171.726562 238.988281 171.703125 239.265625 171.703125 C 240.632812 171.703125 241.914062 172.308594 242.785156 173.347656 C 242.832031 173.410156 242.917969 173.457031 243 173.457031 C 243.085938 173.457031 243.171875 173.433594 243.230469 173.371094 C 243.980469 172.660156 244.960938 172.273438 245.988281 172.273438 C 247.015625 172.273438 248.164062 172.730469 248.914062 173.542969 C 249.011719 173.640625 249.144531 173.664062 249.265625 173.601562 C 249.675781 173.398438 250.125 173.300781 250.582031 173.300781 C 252.238281 173.300781 253.582031 174.640625 253.582031 176.300781 C 253.582031 177.957031 253.714844 176.601562 253.882812 176.601562 C 254.054688 176.601562 254.1875 176.46875 254.1875 176.300781 C 254.1875 174.316406 252.566406 172.695312 250.582031 172.695312 Z M 250.621094 172.707031 " fill-opacity="1" fill-rule="nonzero"/></g><g clip-path="url(#cb460233bc)"><path fill="#000000" d="M 184.613281 67.585938 C 187.234375 70.109375 189.300781 75.394531 187.652344 79.953125 C 184.355469 89.074219 165.734375 88.996094 161.296875 98.0625 C 159.699219 101.332031 159.570312 105.546875 161.882812 108.355469 C 163.613281 110.457031 166.332031 111.453125 168.972656 112.113281 C 171.613281 112.777344 174.28125 113.382812 176.730469 114.574219 C 179.683594 116.011719 181.199219 118.335938 180.832031 121.03125 C 180.386719 124.273438 176.90625 126.324219 174.546875 128.589844 C 170.574219 132.402344 166.660156 137.230469 170.316406 143.757812 C 165.402344 140.054688 164.460938 133.828125 170.097656 126.578125 C 171.328125 124.996094 172.738281 123.628906 172.644531 121.890625 C 172.523438 119.679688 170.09375 118.585938 167.910156 118.207031 C 160.367188 116.886719 155.3125 114.550781 152.707031 110.148438 C 148.03125 102.253906 151.710938 92.984375 157.722656 88.976562 C 166.398438 83.199219 176.675781 85.003906 183.820312 79.761719 C 187.703125 76.914062 186.578125 71.191406 184.613281 67.585938 " fill-opacity="1" fill-rule="nonzero"/></g><path fill="#000000" d="M 169.96875 123.316406 C 169.984375 124.027344 169.667969 124.914062 169.453125 125.363281 C 170.269531 124.488281 171.054688 123.375 170.898438 122.167969 C 170.652344 120.285156 168.648438 119.875 165.53125 119.25 C 158.023438 117.75 152.933594 115.597656 150.328125 111.195312 C 147.394531 106.246094 147.746094 100.757812 149.898438 96.363281 C 146.871094 100.949219 146.417969 106.65625 149.601562 112.027344 C 152.207031 116.429688 157.398438 119.035156 164.941406 120.351562 C 167.121094 120.734375 169.929688 121.152344 169.96875 123.316406 " fill-opacity="1" fill-rule="nonzero"/><g clip-path="url(#88ca07d27e)"><path fill="#000000" d="M 187.828125 83.628906 C 184.996094 91.472656 168.707031 91.542969 164.894531 99.339844 C 163.519531 102.148438 163.679688 105.640625 165.667969 108.054688 C 166.828125 109.464844 168.503906 110.296875 170.265625 110.863281 C 168.910156 110.339844 167.660156 109.335938 166.746094 108.230469 C 164.859375 105.9375 164.964844 102.769531 166.269531 100.105469 C 169.886719 92.710938 185.125 92.628906 187.8125 85.191406 C 188.199219 84.121094 188.285156 83.144531 188.230469 82.042969 C 188.148438 82.578125 188.015625 83.109375 187.828125 83.628906 " fill-opacity="1" fill-rule="nonzero"/></g><g clip-path="url(#fd117da533)"><path fill="#000000" d="M 216.015625 68.527344 C 218.640625 71.050781 220.703125 76.335938 219.054688 80.894531 C 215.761719 90.015625 197.136719 89.9375 192.703125 99.003906 C 191.101562 102.273438 190.976562 106.488281 193.289062 109.296875 C 195.019531 111.398438 197.738281 112.390625 200.378906 113.054688 C 203.019531 113.71875 205.6875 114.324219 208.132812 115.515625 C 211.085938 116.953125 212.605469 119.277344 212.234375 121.972656 C 211.792969 125.214844 208.3125 127.261719 205.949219 129.53125 C 201.980469 133.34375 198.0625 138.167969 201.71875 144.695312 C 196.804688 140.996094 195.863281 134.765625 201.503906 127.519531 C 202.734375 125.9375 204.144531 124.570312 204.046875 122.832031 C 203.929688 120.621094 201.496094 119.527344 199.316406 119.148438 C 191.769531 117.828125 186.71875 115.492188 184.109375 111.089844 C 179.433594 103.195312 183.113281 93.921875 189.128906 89.917969 C 197.800781 84.140625 208.078125 85.945312 215.222656 80.703125 C 219.105469 77.855469 217.984375 72.132812 216.015625 68.527344 " fill-opacity="1" fill-rule="nonzero"/></g><path fill="#000000" d="M 201.375 124.257812 C 201.386719 124.96875 201.074219 125.855469 200.855469 126.304688 C 201.675781 125.429688 202.460938 124.3125 202.304688 123.109375 C 202.058594 121.222656 200.050781 120.816406 196.9375 120.191406 C 189.425781 118.691406 184.339844 116.539062 181.730469 112.136719 C 178.800781 107.1875 179.152344 101.699219 181.304688 97.304688 C 178.273438 101.890625 177.824219 107.59375 181.003906 112.964844 C 183.613281 117.371094 188.800781 119.976562 196.34375 121.292969 C 198.527344 121.675781 201.332031 122.09375 201.375 124.257812 " fill-opacity="1" fill-rule="nonzero"/><g clip-path="url(#3c48c4848c)"><path fill="#000000" d="M 219.234375 84.570312 C 216.398438 92.414062 200.113281 92.484375 196.296875 100.28125 C 194.921875 103.089844 195.082031 106.582031 197.070312 108.996094 C 198.230469 110.40625 199.910156 111.238281 201.667969 111.804688 C 200.316406 111.28125 199.0625 110.277344 198.152344 109.167969 C 196.265625 106.878906 196.371094 103.710938 197.671875 101.046875 C 201.289062 93.652344 216.527344 93.570312 219.214844 86.132812 C 219.601562 85.0625 219.6875 84.085938 219.632812 82.984375 C 219.550781 83.519531 219.421875 84.050781 219.234375 84.570312 " fill-opacity="1" fill-rule="nonzero"/></g><g clip-path="url(#3a719fc11d)"><path fill="#361509" d="M 254.136719 174.964844 L 254.136719 175.28125 C 254.136719 184.300781 252.371094 193.054688 248.886719 201.292969 C 245.519531 209.25 240.699219 216.398438 234.5625 222.535156 C 228.425781 228.671875 221.277344 233.492188 213.320312 236.855469 C 205.082031 240.339844 196.332031 242.109375 187.308594 242.109375 C 178.289062 242.109375 169.535156 240.339844 161.296875 236.855469 C 153.339844 233.492188 146.191406 228.671875 140.054688 222.535156 C 133.917969 216.398438 129.097656 209.25 125.734375 201.292969 C 122.246094 193.054688 120.480469 184.300781 120.480469 175.28125 L 120.480469 174.964844 Z M 254.136719 174.964844 " fill-opacity="1" fill-rule="nonzero"/></g><g clip-path="url(#383ff6d122)"><g clip-path="url(#36515e0975)"><path fill="#361509" d="M 112.332031 155.921875 L 120.804688 155.921875 L 120.804688 164.105469 L 112.332031 164.105469 Z M 112.332031 155.921875 " fill-opacity="1" fill-rule="nonzero"/></g></g><g fill="#000000" fill-opacity="1"><g transform="translate(76.859779, 295.56357)"><g><path d="M 23.125 -32.90625 L 23.125 -20.671875 C 23.125 -17.328125 21.90625 -15.117188 19.46875 -14.046875 L 22.921875 -0.90625 C 23.085938 -0.300781 22.851562 0 22.21875 0 L 17.015625 0 C 16.546875 0 16.257812 -0.234375 16.15625 -0.703125 L 12.796875 -13.453125 L 9.328125 -13.453125 L 9.328125 -0.796875 C 9.328125 -0.265625 9.0625 0 8.53125 0 L 3.3125 0 C 2.78125 0 2.515625 -0.265625 2.515625 -0.796875 L 2.515625 -39.328125 C 2.515625 -39.867188 2.78125 -40.140625 3.3125 -40.140625 L 15.90625 -40.140625 C 18.28125 -40.140625 20.078125 -39.523438 21.296875 -38.296875 C 22.515625 -37.078125 23.125 -35.28125 23.125 -32.90625 Z M 9.328125 -20.0625 L 14.296875 -20.0625 C 15.640625 -20.0625 16.3125 -20.734375 16.3125 -22.078125 L 16.3125 -31.515625 C 16.3125 -32.847656 15.640625 -33.515625 14.296875 -33.515625 L 9.328125 -33.515625 Z M 9.328125 -20.0625 "/></g></g></g><g fill="#000000" fill-opacity="1"><g transform="translate(102.496133, 295.56357)"><g><path d="M 3.3125 -40.140625 L 8.53125 -40.140625 C 9.0625 -40.140625 9.328125 -39.867188 9.328125 -39.328125 L 9.328125 -0.796875 C 9.328125 -0.265625 9.0625 0 8.53125 0 L 3.3125 0 C 2.78125 0 2.515625 -0.265625 2.515625 -0.796875 L 2.515625 -39.328125 C 2.515625 -39.867188 2.78125 -40.140625 3.3125 -40.140625 Z M 3.3125 -40.140625 "/></g></g></g><g fill="#000000" fill-opacity="1"><g transform="translate(114.336016, 295.56357)"><g><path d="M 22.625 -32.90625 L 22.625 -27.5 C 22.625 -26.957031 22.359375 -26.6875 21.828125 -26.6875 L 16.8125 -26.6875 C 16.269531 -26.6875 16 -26.957031 16 -27.5 L 16 -31.515625 C 16 -32.847656 15.332031 -33.515625 14 -33.515625 L 11.390625 -33.515625 C 10.046875 -33.515625 9.375 -32.847656 9.375 -31.515625 L 9.375 -8.625 C 9.375 -7.289062 10.046875 -6.625 11.390625 -6.625 L 14 -6.625 C 15.332031 -6.625 16 -7.289062 16 -8.625 L 16 -12.640625 C 16 -13.179688 16.269531 -13.453125 16.8125 -13.453125 L 21.828125 -13.453125 C 22.359375 -13.453125 22.625 -13.179688 22.625 -12.640625 L 22.625 -7.21875 C 22.625 -4.882812 22.003906 -3.097656 20.765625 -1.859375 C 19.535156 -0.617188 17.75 0 15.40625 0 L 9.78125 0 C 7.4375 0 5.640625 -0.617188 4.390625 -1.859375 C 3.140625 -3.097656 2.515625 -4.882812 2.515625 -7.21875 L 2.515625 -32.90625 C 2.515625 -35.28125 3.140625 -37.078125 4.390625 -38.296875 C 5.640625 -39.523438 7.4375 -40.140625 9.78125 -40.140625 L 15.40625 -40.140625 C 17.75 -40.140625 19.535156 -39.523438 20.765625 -38.296875 C 22.003906 -37.078125 22.625 -35.28125 22.625 -32.90625 Z M 22.625 -32.90625 "/></g></g></g><g fill="#000000" fill-opacity="1"><g transform="translate(139.470681, 295.56357)"><g><path d="M 22.53125 -39.328125 L 22.53125 -34.3125 C 22.53125 -33.75 22.257812 -33.46875 21.71875 -33.46875 L 9.1875 -33.46875 L 9.1875 -23.4375 L 18.765625 -23.4375 C 19.296875 -23.4375 19.5625 -23.148438 19.5625 -22.578125 L 19.5625 -17.609375 C 19.5625 -17.035156 19.296875 -16.75 18.765625 -16.75 L 9.1875 -16.75 L 9.1875 -6.625 L 21.71875 -6.625 C 22.257812 -6.625 22.53125 -6.351562 22.53125 -5.8125 L 22.53125 -0.796875 C 22.53125 -0.265625 22.257812 0 21.71875 0 L 3.265625 0 C 2.765625 0 2.515625 -0.265625 2.515625 -0.796875 L 2.515625 -39.328125 C 2.515625 -39.867188 2.765625 -40.140625 3.265625 -40.140625 L 21.71875 -40.140625 C 22.257812 -40.140625 22.53125 -39.867188 22.53125 -39.328125 Z M 22.53125 -39.328125 "/></g></g></g><g fill="#000000" fill-opacity="1"><g transform="translate(207.205714, 297.37989)"><g><path d="M 22.625 -32.90625 L 22.625 -23.6875 C 22.625 -22.75 22.320312 -21.960938 21.71875 -21.328125 C 21.125 -20.691406 20.375 -20.289062 19.46875 -20.125 L 19.46875 -20.015625 C 20.375 -19.878906 21.125 -19.484375 21.71875 -18.828125 C 22.320312 -18.179688 22.625 -17.390625 22.625 -16.453125 L 22.625 -7.21875 C 22.625 -4.882812 22.003906 -3.097656 20.765625 -1.859375 C 19.535156 -0.617188 17.734375 0 15.359375 0 L 3.3125 0 C 2.78125 0 2.515625 -0.265625 2.515625 -0.796875 L 2.515625 -39.328125 C 2.515625 -39.867188 2.78125 -40.140625 3.3125 -40.140625 L 15.359375 -40.140625 C 17.734375 -40.140625 19.535156 -39.523438 20.765625 -38.296875 C 22.003906 -37.078125 22.625 -35.28125 22.625 -32.90625 Z M 15.953125 -25.34375 L 15.953125 -31.515625 C 15.953125 -32.847656 15.285156 -33.515625 13.953125 -33.515625 L 9.375 -33.515625 L 9.375 -23.375 L 13.953125 -23.375 C 15.285156 -23.375 15.953125 -24.03125 15.953125 -25.34375 Z M 15.953125 -8.625 L 15.953125 -14.75 C 15.953125 -16.082031 15.285156 -16.75 13.953125 -16.75 L 9.375 -16.75 L 9.375 -6.625 L 13.953125 -6.625 C 15.285156 -6.625 15.953125 -7.289062 15.953125 -8.625 Z M 15.953125 -8.625 "/></g></g></g><g fill="#000000" fill-opacity="1"><g transform="translate(232.340378, 297.37989)"><g><path d="M 2.515625 -7.21875 L 2.515625 -32.90625 C 2.515625 -35.28125 3.128906 -37.078125 4.359375 -38.296875 C 5.597656 -39.523438 7.390625 -40.140625 9.734375 -40.140625 L 15.359375 -40.140625 C 17.734375 -40.140625 19.53125 -39.523438 20.75 -38.296875 C 21.96875 -37.078125 22.578125 -35.28125 22.578125 -32.90625 L 22.578125 -7.21875 C 22.578125 -4.882812 21.96875 -3.097656 20.75 -1.859375 C 19.53125 -0.617188 17.734375 0 15.359375 0 L 9.734375 0 C 7.390625 0 5.597656 -0.617188 4.359375 -1.859375 C 3.128906 -3.097656 2.515625 -4.882812 2.515625 -7.21875 Z M 11.1875 -6.46875 L 14.09375 -6.46875 C 15.4375 -6.46875 16.109375 -7.140625 16.109375 -8.484375 L 16.109375 -31.65625 C 16.109375 -33 15.4375 -33.671875 14.09375 -33.671875 L 11.1875 -33.671875 C 9.851562 -33.671875 9.1875 -33 9.1875 -31.65625 L 9.1875 -8.484375 C 9.1875 -7.140625 9.851562 -6.46875 11.1875 -6.46875 Z M 11.1875 -6.46875 "/></g></g></g><g fill="#000000" fill-opacity="1"><g transform="translate(257.424873, 297.37989)"><g><path d="M 29.953125 -40.140625 L 34.71875 -40.140625 C 35.414062 -40.140625 35.734375 -39.785156 35.671875 -39.078125 L 31.359375 -0.953125 C 31.328125 -0.316406 30.972656 0 30.296875 0 L 25.390625 0 C 24.816406 0 24.445312 -0.300781 24.28125 -0.90625 L 19.0625 -23.578125 L 13.796875 -0.859375 C 13.628906 -0.285156 13.257812 0 12.6875 0 L 7.671875 0 C 7.003906 0 6.65625 -0.316406 6.625 -0.953125 L 2.515625 -39.078125 C 2.441406 -39.785156 2.757812 -40.140625 3.46875 -40.140625 L 8.234375 -40.140625 C 8.867188 -40.140625 9.21875 -39.820312 9.28125 -39.1875 L 11.234375 -15.703125 L 11.484375 -15.703125 L 16.453125 -39.234375 C 16.617188 -39.835938 16.988281 -40.140625 17.5625 -40.140625 L 20.578125 -40.140625 C 21.171875 -40.140625 21.535156 -39.835938 21.671875 -39.234375 L 26.59375 -15.703125 L 26.84375 -15.703125 L 28.90625 -39.1875 C 28.96875 -39.820312 29.316406 -40.140625 29.953125 -40.140625 Z M 29.953125 -40.140625 "/></g></g></g><g fill="#000000" fill-opacity="1"><g transform="translate(295.603481, 297.37989)"><g><path d="M 9.328125 -6.625 L 9.328125 -39.328125 C 9.328125 -39.867188 9.0625 -40.140625 8.53125 -40.140625 L 3.3125 -40.140625 C 2.78125 -40.140625 2.515625 -39.867188 2.515625 -39.328125 L 2.515625 -0.796875 C 2.515625 -0.265625 2.78125 0 3.3125 0 L 21.265625 0 C 21.804688 0 22.078125 -0.265625 22.078125 -0.796875 L 22.078125 -5.8125 C 22.078125 -6.351562 21.804688 -6.625 21.265625 -6.625 Z M 9.328125 -6.625 "/></g></g></g></svg>