<svg xmlns="http://www.w3.org/2000/svg" xmlns:xlink="http://www.w3.org/1999/xlink" width="500" zoomAndPan="magnify" viewBox="0 0 375 374.999991" height="500" preserveAspectRatio="xMidYMid meet" version="1.0"><defs><g/><clipPath id="a5cac0da68"><path d="M 127.675781 237.394531 L 247.324219 237.394531 L 247.324219 252.035156 L 127.675781 252.035156 Z M 127.675781 237.394531 " clip-rule="nonzero"/></clipPath><clipPath id="94f70da765"><path d="M 101.761719 124.660156 L 272.996094 124.660156 L 272.996094 162 L 101.761719 162 Z M 101.761719 124.660156 " clip-rule="nonzero"/></clipPath><clipPath id="a8d1fac17a"><path d="M 140.058594 20.992188 L 188.453125 20.992188 L 188.453125 118.628906 L 140.058594 118.628906 Z M 140.058594 20.992188 " clip-rule="nonzero"/></clipPath><clipPath id="e299d3a423"><path d="M 157.339844 39.488281 L 188.453125 39.488281 L 188.453125 76.480469 L 157.339844 76.480469 Z M 157.339844 39.488281 " clip-rule="nonzero"/></clipPath><clipPath id="cefc7b2247"><path d="M 180.3125 22.199219 L 228.707031 22.199219 L 228.707031 119.835938 L 180.3125 119.835938 Z M 180.3125 22.199219 " clip-rule="nonzero"/></clipPath><clipPath id="6cbbf38378"><path d="M 197.59375 40.695312 L 228.707031 40.695312 L 228.707031 77.6875 L 197.59375 77.6875 Z M 197.59375 40.695312 " clip-rule="nonzero"/></clipPath><clipPath id="25ac1f42a2"><path d="M 101.523438 158.632812 L 272.757812 158.632812 L 272.757812 244.25 L 101.523438 244.25 Z M 101.523438 158.632812 " clip-rule="nonzero"/></clipPath><clipPath id="60b753d119"><path d="M 96.519531 139.015625 L 97.09375 139.015625 L 97.09375 139.425781 L 96.519531 139.425781 Z M 96.519531 139.015625 " clip-rule="nonzero"/></clipPath><clipPath id="27ef6a2f51"><path d="M 97.058594 139.285156 C 95.972656 139.648438 96.9375 139.046875 96.9375 139.046875 " clip-rule="nonzero"/></clipPath></defs><g clip-path="url(#a5cac0da68)"><path fill="#361509" d="M 127.675781 237.394531 L 247.304688 237.394531 L 247.304688 252.035156 L 127.675781 252.035156 Z M 127.675781 237.394531 " fill-opacity="1" fill-rule="nonzero"/></g><path stroke-linecap="butt" transform="matrix(1.205874, 0, 0, 1.205874, 6.466297, 246.005374)" fill="none" stroke-linejoin="miter" d="M -0.0012053 5.000341 L 300.254234 5.000341 " stroke="#997950" stroke-width="10" stroke-opacity="1" stroke-miterlimit="4"/><g clip-path="url(#94f70da765)"><path fill="#000000" d="M 268.40625 155.738281 C 267.785156 155.738281 267.199219 155.863281 266.625 156.09375 C 265.523438 155.027344 264.035156 154.421875 262.5 154.421875 C 260.96875 154.421875 259.789062 154.902344 258.734375 155.785156 C 257.480469 154.453125 255.726562 153.691406 253.882812 153.691406 C 252.039062 153.691406 253.28125 153.707031 252.984375 153.753906 C 251.527344 150.191406 248.027344 147.820312 244.152344 147.820312 C 240.277344 147.820312 236.710938 150.222656 235.285156 153.847656 C 234.835938 153.753906 234.371094 153.707031 233.90625 153.707031 C 232.203125 153.707031 230.558594 154.359375 229.335938 155.539062 C 227.847656 153.167969 225.304688 151.632812 222.5 151.460938 C 222.5625 151.027344 222.59375 150.578125 222.59375 150.128906 C 222.59375 147.308594 221.320312 144.796875 219.320312 143.105469 C 220.375 141.789062 221.910156 140.90625 223.582031 140.675781 C 223.769531 140.644531 223.894531 140.503906 223.925781 140.332031 C 223.941406 140.132812 223.972656 139.929688 224.003906 139.742188 C 224.777344 134.769531 229.472656 131.359375 234.449219 132.148438 C 236.773438 132.523438 238.851562 133.746094 240.277344 135.621094 C 240.398438 135.777344 240.617188 135.824219 240.789062 135.714844 C 241.625 135.1875 242.617188 134.984375 243.578125 135.140625 C 245.777344 135.480469 247.28125 137.558594 246.941406 139.757812 C 246.925781 139.867188 246.957031 139.992188 247.035156 140.070312 C 247.109375 140.164062 247.21875 140.210938 247.328125 140.195312 C 247.746094 140.195312 248.164062 140.195312 248.566406 140.269531 C 250.304688 140.550781 251.824219 141.480469 252.859375 142.890625 C 253.898438 144.316406 254.316406 146.050781 254.039062 147.789062 C 254.007812 148.003906 254.148438 148.191406 254.363281 148.238281 C 254.378906 148.238281 254.410156 148.238281 254.425781 148.238281 C 254.613281 148.238281 254.78125 148.097656 254.8125 147.910156 C 255.125 145.976562 254.644531 144.039062 253.496094 142.441406 C 252.335938 140.859375 250.628906 139.804688 248.691406 139.511719 C 248.382812 139.464844 248.070312 139.433594 247.746094 139.417969 C 247.902344 136.96875 246.148438 134.753906 243.6875 134.367188 C 242.648438 134.195312 241.578125 134.382812 240.664062 134.878906 C 239.128906 133.003906 236.960938 131.761719 234.558594 131.390625 C 229.164062 130.539062 224.078125 134.242188 223.226562 139.636719 C 223.210938 139.742188 223.195312 139.851562 223.179688 139.976562 C 221.414062 140.285156 219.816406 141.246094 218.703125 142.640625 C 217.199219 141.574219 215.371094 140.953125 213.402344 140.953125 C 211.433594 140.953125 212.546875 140.984375 212.113281 141.046875 C 211.867188 137.960938 209.277344 135.527344 206.148438 135.527344 C 203.015625 135.527344 203.511719 135.976562 202.460938 136.800781 C 200.179688 134.738281 197.234375 133.605469 194.152344 133.605469 C 191.066406 133.605469 189.53125 134.257812 187.566406 135.496094 C 186.046875 129.175781 180.359375 124.679688 173.847656 124.679688 C 167.339844 124.679688 167.773438 125.671875 165.292969 127.5625 C 162.96875 129.328125 161.214844 131.824219 160.347656 134.597656 C 157.589844 134.941406 154.984375 136.023438 152.800781 137.761719 C 150.816406 135.542969 148.011719 134.289062 145.035156 134.289062 C 139.597656 134.289062 135.070312 138.519531 134.636719 143.867188 C 132.777344 142.582031 130.621094 141.898438 128.328125 141.898438 C 122.316406 141.898438 117.402344 146.734375 117.277344 152.714844 C 116.332031 152.28125 115.277344 152.050781 114.222656 152.050781 C 111.976562 152.050781 109.855469 153.105469 108.472656 154.871094 C 108.101562 154.792969 107.714844 154.746094 107.328125 154.746094 C 104.257812 154.746094 101.761719 157.242188 101.761719 160.3125 C 101.761719 163.378906 101.933594 160.699219 102.152344 160.699219 C 102.367188 160.699219 102.539062 160.527344 102.539062 160.3125 C 102.539062 157.675781 104.691406 155.523438 107.328125 155.523438 C 109.960938 155.523438 108.148438 155.570312 108.535156 155.675781 C 108.691406 155.722656 108.863281 155.660156 108.953125 155.523438 C 110.179688 153.832031 112.148438 152.824219 114.222656 152.824219 C 116.300781 152.824219 116.488281 153.121094 117.464844 153.691406 C 117.585938 153.769531 117.742188 153.753906 117.851562 153.691406 C 117.976562 153.617188 118.035156 153.492188 118.035156 153.351562 C 118.035156 153.226562 118.035156 153.105469 118.035156 152.964844 C 118.035156 147.292969 122.65625 142.671875 128.328125 142.671875 C 134 142.671875 132.777344 143.402344 134.574219 144.796875 C 132.296875 146.609375 130.824219 149.414062 130.824219 152.546875 C 130.824219 155.675781 130.992188 152.933594 131.210938 152.933594 C 131.429688 152.933594 131.597656 152.761719 131.597656 152.546875 C 131.597656 147.507812 135.691406 143.417969 140.726562 143.417969 C 145.765625 143.417969 145.316406 144.316406 147.019531 145.945312 C 147.160156 146.082031 147.390625 146.082031 147.546875 145.945312 C 148.289062 145.292969 149.234375 144.9375 150.210938 144.9375 C 152.429688 144.9375 154.257812 146.75 154.257812 148.964844 C 154.257812 149.074219 154.304688 149.183594 154.398438 149.261719 C 154.492188 149.335938 154.597656 149.367188 154.722656 149.335938 C 155.125 149.261719 155.542969 149.230469 155.960938 149.230469 C 159.589844 149.230469 162.535156 152.175781 162.535156 155.800781 C 162.535156 159.425781 162.703125 156.1875 162.921875 156.1875 C 163.136719 156.1875 163.308594 156.019531 163.308594 155.800781 C 163.308594 151.753906 160.007812 148.453125 155.960938 148.453125 C 151.917969 148.453125 155.328125 148.46875 155.015625 148.515625 C 154.785156 146.082031 152.722656 144.160156 150.210938 144.160156 C 147.703125 144.160156 148.136719 144.503906 147.300781 145.136719 C 145.484375 143.527344 143.160156 142.640625 140.710938 142.640625 C 138.261719 142.640625 136.914062 143.214844 135.363281 144.207031 C 135.644531 139.125 139.890625 135.0625 145.019531 135.0625 C 150.152344 135.0625 150.601562 136.335938 152.445312 138.550781 C 152.507812 138.628906 152.597656 138.675781 152.707031 138.691406 C 152.816406 138.691406 152.910156 138.675781 152.988281 138.597656 C 155.171875 136.753906 157.839844 135.636719 160.675781 135.34375 C 160.828125 135.328125 160.96875 135.21875 161 135.0625 C 162.65625 129.40625 167.929688 125.46875 173.816406 125.46875 C 179.707031 125.46875 185.660156 129.964844 186.914062 136.164062 C 186.945312 136.289062 187.023438 136.394531 187.144531 136.441406 C 187.269531 136.488281 187.410156 136.472656 187.519531 136.394531 C 189.472656 135.046875 191.765625 134.335938 194.136719 134.335938 C 196.507812 134.335938 199.996094 135.480469 202.164062 137.542969 C 202.304688 137.683594 202.535156 137.683594 202.691406 137.542969 C 203.636719 136.707031 204.863281 136.242188 206.132812 136.242188 C 209 136.242188 211.339844 138.566406 211.339844 141.433594 C 211.339844 141.542969 211.386719 141.652344 211.480469 141.726562 C 211.574219 141.804688 211.679688 141.835938 211.804688 141.804688 C 212.332031 141.710938 212.859375 141.652344 213.386719 141.652344 C 218.019531 141.652344 221.800781 145.417969 221.800781 150.066406 C 221.800781 154.714844 221.753906 151.152344 221.648438 151.695312 C 221.632812 151.800781 221.648438 151.925781 221.722656 152.019531 C 221.800781 152.113281 221.910156 152.160156 222.019531 152.160156 C 224.886719 152.191406 227.519531 153.785156 228.898438 156.296875 C 228.960938 156.40625 229.070312 156.484375 229.195312 156.5 C 229.320312 156.5 229.441406 156.46875 229.519531 156.375 C 230.636719 155.132812 232.21875 154.4375 233.890625 154.4375 C 235.566406 154.4375 234.914062 154.5 235.410156 154.636719 C 235.609375 154.683594 235.8125 154.59375 235.875 154.390625 C 237.113281 150.902344 240.429688 148.5625 244.136719 148.5625 C 247.839844 148.5625 251.09375 150.871094 252.351562 154.296875 C 252.410156 154.46875 252.597656 154.578125 252.785156 154.546875 C 253.140625 154.484375 253.496094 154.453125 253.851562 154.453125 C 255.605469 154.453125 257.246094 155.226562 258.363281 156.558594 C 258.425781 156.636719 258.535156 156.699219 258.640625 156.699219 C 258.75 156.699219 258.859375 156.667969 258.9375 156.589844 C 259.898438 155.675781 261.152344 155.179688 262.46875 155.179688 C 263.789062 155.179688 265.261719 155.769531 266.222656 156.808594 C 266.34375 156.933594 266.515625 156.964844 266.671875 156.886719 C 267.199219 156.621094 267.769531 156.5 268.359375 156.5 C 270.484375 156.5 272.203125 158.21875 272.203125 160.34375 C 272.203125 162.464844 272.375 160.730469 272.589844 160.730469 C 272.808594 160.730469 272.980469 160.558594 272.980469 160.34375 C 272.980469 157.800781 270.902344 155.722656 268.359375 155.722656 Z M 268.40625 155.738281 " fill-opacity="1" fill-rule="nonzero"/></g><g clip-path="url(#a8d1fac17a)"><path fill="#000000" d="M 183.800781 20.992188 C 187.160156 24.226562 189.808594 31 187.695312 36.847656 C 183.472656 48.535156 159.597656 48.4375 153.914062 60.058594 C 151.863281 64.246094 151.699219 69.652344 154.664062 73.25 C 156.882812 75.945312 160.367188 77.21875 163.753906 78.070312 C 167.136719 78.917969 170.554688 79.695312 173.695312 81.222656 C 177.476562 83.066406 179.425781 86.042969 178.953125 89.5 C 178.382812 93.65625 173.921875 96.28125 170.894531 99.1875 C 165.804688 104.074219 160.785156 110.261719 165.472656 118.628906 C 159.175781 113.886719 157.964844 105.898438 165.195312 96.609375 C 166.769531 94.582031 168.578125 92.832031 168.457031 90.601562 C 168.304688 87.765625 165.1875 86.367188 162.390625 85.878906 C 152.722656 84.1875 146.242188 81.195312 142.898438 75.550781 C 136.90625 65.433594 141.621094 53.546875 149.332031 48.410156 C 160.453125 41.003906 173.625 43.320312 182.78125 36.601562 C 187.761719 32.949219 186.320312 25.613281 183.800781 20.992188 " fill-opacity="1" fill-rule="nonzero"/></g><path fill="#000000" d="M 165.03125 92.429688 C 165.046875 93.339844 164.644531 94.476562 164.367188 95.054688 C 165.414062 93.933594 166.421875 92.5 166.222656 90.957031 C 165.90625 88.539062 163.335938 88.015625 159.339844 87.21875 C 149.714844 85.292969 143.195312 82.535156 139.851562 76.890625 C 136.09375 70.546875 136.546875 63.511719 139.304688 57.878906 C 135.417969 63.757812 134.84375 71.070312 138.917969 77.957031 C 142.261719 83.601562 148.914062 86.941406 158.582031 88.628906 C 161.378906 89.121094 164.976562 89.65625 165.03125 92.429688 " fill-opacity="1" fill-rule="nonzero"/><g clip-path="url(#e299d3a423)"><path fill="#000000" d="M 187.921875 41.558594 C 184.289062 51.613281 163.410156 51.703125 158.523438 61.695312 C 156.757812 65.296875 156.964844 69.769531 159.515625 72.867188 C 161.003906 74.675781 163.152344 75.738281 165.40625 76.464844 C 163.671875 75.792969 162.070312 74.511719 160.898438 73.089844 C 158.480469 70.152344 158.613281 66.09375 160.285156 62.675781 C 164.921875 53.199219 184.453125 53.09375 187.898438 43.5625 C 188.394531 42.1875 188.503906 40.9375 188.433594 39.523438 C 188.328125 40.210938 188.160156 40.890625 187.921875 41.558594 " fill-opacity="1" fill-rule="nonzero"/></g><g clip-path="url(#cefc7b2247)"><path fill="#000000" d="M 224.054688 22.199219 C 227.414062 25.433594 230.0625 32.207031 227.949219 38.050781 C 223.726562 49.742188 199.855469 49.644531 194.167969 61.261719 C 192.117188 65.453125 191.953125 70.855469 194.917969 74.457031 C 197.136719 77.152344 200.621094 78.425781 204.007812 79.273438 C 207.390625 80.125 210.8125 80.902344 213.949219 82.429688 C 217.734375 84.273438 219.679688 87.25 219.207031 90.707031 C 218.636719 94.859375 214.175781 97.488281 211.152344 100.390625 C 206.058594 105.28125 201.039062 111.46875 205.726562 119.835938 C 199.429688 115.089844 198.222656 107.105469 205.449219 97.816406 C 207.023438 95.789062 208.832031 94.035156 208.710938 91.808594 C 208.558594 88.972656 205.441406 87.574219 202.644531 87.085938 C 192.976562 85.394531 186.496094 82.402344 183.152344 76.757812 C 177.160156 66.636719 181.878906 54.753906 189.585938 49.617188 C 200.707031 42.210938 213.878906 44.523438 223.039062 37.804688 C 228.015625 34.15625 226.574219 26.820312 224.054688 22.199219 " fill-opacity="1" fill-rule="nonzero"/></g><path fill="#000000" d="M 205.285156 93.632812 C 205.300781 94.546875 204.898438 95.679688 204.621094 96.261719 C 205.667969 95.140625 206.675781 93.707031 206.476562 92.164062 C 206.160156 89.746094 203.589844 89.222656 199.59375 88.425781 C 189.96875 86.5 183.449219 83.742188 180.105469 78.097656 C 176.347656 71.753906 176.800781 64.71875 179.558594 59.085938 C 175.675781 64.964844 175.097656 72.277344 179.175781 79.160156 C 182.515625 84.804688 189.167969 88.144531 198.839844 89.835938 C 201.632812 90.324219 205.230469 90.859375 205.285156 93.632812 " fill-opacity="1" fill-rule="nonzero"/><g clip-path="url(#6cbbf38378)"><path fill="#000000" d="M 228.175781 42.765625 C 224.542969 52.816406 203.664062 52.90625 198.777344 62.902344 C 197.011719 66.503906 197.21875 70.976562 199.769531 74.074219 C 201.257812 75.878906 203.40625 76.945312 205.660156 77.671875 C 203.925781 77 202.324219 75.714844 201.152344 74.296875 C 198.734375 71.359375 198.867188 67.300781 200.539062 63.882812 C 205.175781 54.40625 224.710938 54.300781 228.152344 44.765625 C 228.648438 43.394531 228.757812 42.144531 228.691406 40.730469 C 228.585938 41.417969 228.414062 42.097656 228.175781 42.765625 " fill-opacity="1" fill-rule="nonzero"/></g><g clip-path="url(#25ac1f42a2)"><path fill="#361509" d="M 272.914062 158.632812 L 272.914062 159.035156 C 272.914062 170.601562 270.648438 181.816406 266.183594 192.378906 C 261.867188 202.578125 255.691406 211.742188 247.824219 219.605469 C 239.960938 227.472656 230.796875 233.648438 220.597656 237.964844 C 210.035156 242.429688 198.820312 244.695312 187.253906 244.695312 C 175.691406 244.695312 164.472656 242.429688 153.910156 237.964844 C 143.710938 233.648438 134.550781 227.472656 126.683594 219.605469 C 118.816406 211.742188 112.640625 202.578125 108.328125 192.378906 C 103.859375 181.816406 101.59375 170.601562 101.59375 159.035156 L 101.59375 158.632812 Z M 272.914062 158.632812 " fill-opacity="1" fill-rule="nonzero"/></g><g clip-path="url(#60b753d119)"><g clip-path="url(#27ef6a2f51)"><path fill="#361509" d="M 91.152344 134.222656 L 102.011719 134.222656 L 102.011719 144.714844 L 91.152344 144.714844 Z M 91.152344 134.222656 " fill-opacity="1" fill-rule="nonzero"/></g></g><g fill="#000000" fill-opacity="1"><g transform="translate(45.680726, 313.215965)"><g><path d="M 29.640625 -42.1875 L 29.640625 -26.5 C 29.640625 -22.207031 28.078125 -19.375 24.953125 -18 L 29.390625 -1.15625 C 29.609375 -0.382812 29.304688 0 28.484375 0 L 21.796875 0 C 21.203125 0 20.835938 -0.300781 20.703125 -0.90625 L 16.40625 -17.234375 L 11.96875 -17.234375 L 11.96875 -1.03125 C 11.96875 -0.34375 11.625 0 10.9375 0 L 4.25 0 C 3.5625 0 3.21875 -0.34375 3.21875 -1.03125 L 3.21875 -50.421875 C 3.21875 -51.109375 3.5625 -51.453125 4.25 -51.453125 L 20.390625 -51.453125 C 23.429688 -51.453125 25.734375 -50.664062 27.296875 -49.09375 C 28.859375 -47.53125 29.640625 -45.226562 29.640625 -42.1875 Z M 11.96875 -25.71875 L 18.328125 -25.71875 C 20.046875 -25.71875 20.90625 -26.578125 20.90625 -28.296875 L 20.90625 -40.390625 C 20.90625 -42.097656 20.046875 -42.953125 18.328125 -42.953125 L 11.96875 -42.953125 Z M 11.96875 -25.71875 "/></g></g></g><g fill="#000000" fill-opacity="1"><g transform="translate(78.541555, 313.215965)"><g><path d="M 4.25 -51.453125 L 10.9375 -51.453125 C 11.625 -51.453125 11.96875 -51.109375 11.96875 -50.421875 L 11.96875 -1.03125 C 11.96875 -0.34375 11.625 0 10.9375 0 L 4.25 0 C 3.5625 0 3.21875 -0.34375 3.21875 -1.03125 L 3.21875 -50.421875 C 3.21875 -51.109375 3.5625 -51.453125 4.25 -51.453125 Z M 4.25 -51.453125 "/></g></g></g><g fill="#000000" fill-opacity="1"><g transform="translate(93.717987, 313.215965)"><g><path d="M 29 -42.1875 L 29 -35.25 C 29 -34.5625 28.65625 -34.21875 27.96875 -34.21875 L 21.546875 -34.21875 C 20.859375 -34.21875 20.515625 -34.5625 20.515625 -35.25 L 20.515625 -40.390625 C 20.515625 -42.097656 19.65625 -42.953125 17.9375 -42.953125 L 14.59375 -42.953125 C 12.882812 -42.953125 12.03125 -42.097656 12.03125 -40.390625 L 12.03125 -11.0625 C 12.03125 -9.34375 12.882812 -8.484375 14.59375 -8.484375 L 17.9375 -8.484375 C 19.65625 -8.484375 20.515625 -9.34375 20.515625 -11.0625 L 20.515625 -16.203125 C 20.515625 -16.890625 20.859375 -17.234375 21.546875 -17.234375 L 27.96875 -17.234375 C 28.65625 -17.234375 29 -16.890625 29 -16.203125 L 29 -9.265625 C 29 -6.265625 28.207031 -3.96875 26.625 -2.375 C 25.039062 -0.789062 22.75 0 19.75 0 L 12.546875 0 C 9.535156 0 7.226562 -0.789062 5.625 -2.375 C 4.019531 -3.96875 3.21875 -6.265625 3.21875 -9.265625 L 3.21875 -42.1875 C 3.21875 -45.226562 4.019531 -47.53125 5.625 -49.09375 C 7.226562 -50.664062 9.535156 -51.453125 12.546875 -51.453125 L 19.75 -51.453125 C 22.75 -51.453125 25.039062 -50.664062 26.625 -49.09375 C 28.207031 -47.53125 29 -45.226562 29 -42.1875 Z M 29 -42.1875 "/></g></g></g><g fill="#000000" fill-opacity="1"><g transform="translate(125.935748, 313.215965)"><g><path d="M 28.875 -50.421875 L 28.875 -43.984375 C 28.875 -43.253906 28.53125 -42.890625 27.84375 -42.890625 L 11.765625 -42.890625 L 11.765625 -30.03125 L 24.046875 -30.03125 C 24.734375 -30.03125 25.078125 -29.664062 25.078125 -28.9375 L 25.078125 -22.578125 C 25.078125 -21.847656 24.734375 -21.484375 24.046875 -21.484375 L 11.765625 -21.484375 L 11.765625 -8.484375 L 27.84375 -8.484375 C 28.53125 -8.484375 28.875 -8.140625 28.875 -7.453125 L 28.875 -1.03125 C 28.875 -0.34375 28.53125 0 27.84375 0 L 4.1875 0 C 3.539062 0 3.21875 -0.34375 3.21875 -1.03125 L 3.21875 -50.421875 C 3.21875 -51.109375 3.539062 -51.453125 4.1875 -51.453125 L 27.84375 -51.453125 C 28.53125 -51.453125 28.875 -51.109375 28.875 -50.421875 Z M 28.875 -50.421875 "/></g></g></g><g fill="#000000" fill-opacity="1"><g transform="translate(212.758906, 315.544159)"><g><path d="M 29 -42.1875 L 29 -30.359375 C 29 -29.160156 28.613281 -28.148438 27.84375 -27.328125 C 27.070312 -26.515625 26.109375 -26.003906 24.953125 -25.796875 L 24.953125 -25.65625 C 26.109375 -25.488281 27.070312 -24.984375 27.84375 -24.140625 C 28.613281 -23.304688 29 -22.289062 29 -21.09375 L 29 -9.265625 C 29 -6.265625 28.207031 -3.96875 26.625 -2.375 C 25.039062 -0.789062 22.722656 0 19.671875 0 L 4.25 0 C 3.5625 0 3.21875 -0.34375 3.21875 -1.03125 L 3.21875 -50.421875 C 3.21875 -51.109375 3.5625 -51.453125 4.25 -51.453125 L 19.671875 -51.453125 C 22.722656 -51.453125 25.039062 -50.664062 26.625 -49.09375 C 28.207031 -47.53125 29 -45.226562 29 -42.1875 Z M 20.453125 -32.484375 L 20.453125 -40.390625 C 20.453125 -42.097656 19.59375 -42.953125 17.875 -42.953125 L 12.03125 -42.953125 L 12.03125 -29.96875 L 17.875 -29.96875 C 19.59375 -29.96875 20.453125 -30.804688 20.453125 -32.484375 Z M 20.453125 -11.0625 L 20.453125 -18.90625 C 20.453125 -20.625 19.59375 -21.484375 17.875 -21.484375 L 12.03125 -21.484375 L 12.03125 -8.484375 L 17.875 -8.484375 C 19.59375 -8.484375 20.453125 -9.34375 20.453125 -11.0625 Z M 20.453125 -11.0625 "/></g></g></g><g fill="#000000" fill-opacity="1"><g transform="translate(244.976666, 315.544159)"><g><path d="M 3.21875 -9.265625 L 3.21875 -42.1875 C 3.21875 -45.226562 4.007812 -47.53125 5.59375 -49.09375 C 7.175781 -50.664062 9.472656 -51.453125 12.484375 -51.453125 L 19.671875 -51.453125 C 22.722656 -51.453125 25.03125 -50.664062 26.59375 -49.09375 C 28.15625 -47.53125 28.9375 -45.226562 28.9375 -42.1875 L 28.9375 -9.265625 C 28.9375 -6.265625 28.15625 -3.96875 26.59375 -2.375 C 25.03125 -0.789062 22.722656 0 19.671875 0 L 12.484375 0 C 9.472656 0 7.175781 -0.789062 5.59375 -2.375 C 4.007812 -3.96875 3.21875 -6.265625 3.21875 -9.265625 Z M 14.34375 -8.296875 L 18.078125 -8.296875 C 19.785156 -8.296875 20.640625 -9.15625 20.640625 -10.875 L 20.640625 -40.578125 C 20.640625 -42.296875 19.785156 -43.15625 18.078125 -43.15625 L 14.34375 -43.15625 C 12.625 -43.15625 11.765625 -42.296875 11.765625 -40.578125 L 11.765625 -10.875 C 11.765625 -9.15625 12.625 -8.296875 14.34375 -8.296875 Z M 14.34375 -8.296875 "/></g></g></g><g fill="#000000" fill-opacity="1"><g transform="translate(277.130118, 315.544159)"><g><path d="M 38.390625 -51.453125 L 44.5 -51.453125 C 45.40625 -51.453125 45.8125 -51 45.71875 -50.09375 L 40.1875 -1.21875 C 40.144531 -0.40625 39.695312 0 38.84375 0 L 32.546875 0 C 31.816406 0 31.34375 -0.382812 31.125 -1.15625 L 24.4375 -30.234375 L 17.6875 -1.09375 C 17.46875 -0.363281 16.992188 0 16.265625 0 L 9.84375 0 C 8.976562 0 8.523438 -0.40625 8.484375 -1.21875 L 3.21875 -50.09375 C 3.132812 -51 3.539062 -51.453125 4.4375 -51.453125 L 10.546875 -51.453125 C 11.359375 -51.453125 11.804688 -51.046875 11.890625 -50.234375 L 14.40625 -20.125 L 14.734375 -20.125 L 21.09375 -50.296875 C 21.3125 -51.066406 21.785156 -51.453125 22.515625 -51.453125 L 26.375 -51.453125 C 27.144531 -51.453125 27.613281 -51.066406 27.78125 -50.296875 L 34.078125 -20.125 L 34.40625 -20.125 L 37.046875 -50.234375 C 37.128906 -51.046875 37.578125 -51.453125 38.390625 -51.453125 Z M 38.390625 -51.453125 "/></g></g></g><g fill="#000000" fill-opacity="1"><g transform="translate(326.067683, 315.544159)"><g><path d="M 11.96875 -8.484375 L 11.96875 -50.421875 C 11.96875 -51.109375 11.625 -51.453125 10.9375 -51.453125 L 4.25 -51.453125 C 3.5625 -51.453125 3.21875 -51.109375 3.21875 -50.421875 L 3.21875 -1.03125 C 3.21875 -0.34375 3.5625 0 4.25 0 L 27.265625 0 C 27.953125 0 28.296875 -0.34375 28.296875 -1.03125 L 28.296875 -7.453125 C 28.296875 -8.140625 27.953125 -8.484375 27.265625 -8.484375 Z M 11.96875 -8.484375 "/></g></g></g></svg>